<svg id="Capa_1" data-name="Capa 1" xmlns="http://www.w3.org/2000/svg" viewBox="0 0 1058.27 595.67"><defs><style>.cls-1{fill:#3093a0;}</style></defs><path class="cls-1" d="M414.23,467.15l-16.75,4.63,3.35-30.73c.11-3.36.45-6.93.78-10.38,1.12-11.64,2.27-23.68-4.05-32.79-4.51-6.5-10.12-7.45-14-7.1-7.29.66-15.35,6.44-22.14,15.85-9.29,12.9-11.74,28.86-13.9,42.95-.52,3.41-1,6.76-1.65,10.13l-4.16,27.47L228.13,520.33c-3.67.64-6.26.11-7.93-1.64-3.14-3.29-2.53-10.48-2-13.24l19.13-149.84c.66-10.72,1.42-19.62,2.09-27.47,2-23.14,3-34.76-3.24-43.7-4.52-6.51-10.13-7.45-14-7.1-7.3.66-15.35,6.43-22.13,15.85a122,122,0,0,0-13.41,25c-.05-6.81-1.14-13.29-4.91-18.71-4.51-6.51-10.12-7.46-14-7.11-7.29.66-15.35,6.44-22.13,15.85a124.75,124.75,0,0,0-14.09,26.61,67.66,67.66,0,0,0-2.61-19.14c-3-9.47-9.29-9.93-12.76-9.37-11.08,1.79-24,18.64-27.32,31.38a3,3,0,0,0,2.43,3.91,4.12,4.12,0,0,0,4.26-3.08c2.86-10.9,13.75-24.18,20.73-25.27,1-.16,4.08-.67,6,5.45,3.57,11.2,2.32,26.68,1.22,40.33l-.35,4.43c-2.4,31.38-7.75,64-13,94.67a2.93,2.93,0,0,0,2.8,3.61,3.69,3.69,0,0,0,1.05-.13,4.24,4.24,0,0,0,3-3.28c5.29-30.79,10.66-63.49,13.09-95.12,3.39-18.26,11.61-38.44,21-51.43,5.28-7.33,11.39-12,16.33-12.42,3.33-.3,6.22,1.28,8.58,4.69,5.05,7.28,4.06,17.61,3,28.56-.34,3.56-.69,7.23-.8,10.54l-10.84,99.46a2.92,2.92,0,0,0,3.06,3.38,3.26,3.26,0,0,0,.82-.13,4.22,4.22,0,0,0,3-3.51l10.21-93.76a1.7,1.7,0,0,0,.09-.24c3.37-18.3,11.62-38.54,21-51.57,5.28-7.33,11.38-12,16.33-12.41,3.33-.3,6.22,1.27,8.58,4.68,5,7.15,4.09,17.3,2.2,39.55-.67,7.89-1.43,16.83-2.08,27.41L211.39,505.3c-.11.5-2.46,12.37,3.47,18.62,3.07,3.24,7.59,4.36,13.8,3.25l111.92-32.69-9.16,60.66a2.92,2.92,0,0,0,2.89,3.53,3.49,3.49,0,0,0,1-.13,4.22,4.22,0,0,0,3-3.36l9.47-62.67L389.62,481,383.07,541a2.92,2.92,0,0,0,3.06,3.38,4.15,4.15,0,0,0,3.83-3.64L396.69,479l18.41-5.08a4.15,4.15,0,0,0,3-4.33A3,3,0,0,0,414.23,467.15ZM394.71,431c-.34,3.56-.69,7.23-.8,10.54l-3.5,32.16-41.57,11.48,3.83-25.34c.61-3.31,1.14-6.74,1.67-10.23,2.13-13.85,4.32-28.17,12.45-39.44,5.28-7.34,11.41-12,16.33-12.42,3.33-.3,6.21,1.28,8.57,4.69C396.74,409.74,395.76,420.08,394.71,431Z"/><path class="cls-1" d="M446.32,513.63c-11.61,11.61-16.09,11.87-17.19,11.68-.94-.16-1.66-1.06-2.13-2.68L436.22,427a2.91,2.91,0,0,0-3.11-3.33,4.13,4.13,0,0,0-3.79,3.68l-9.08,93.82-.25,3.13.13.52c1.34,5.4,4.47,7.05,6.85,7.47a10.88,10.88,0,0,0,4.85-.32c5-1.38,11.18-5.84,19-13.66a3.58,3.58,0,0,0,.4-5A3.46,3.46,0,0,0,446.32,513.63Z"/><path class="cls-1" d="M904.25,381c-16.85,19.05-23.08,19.92-24.6,19.78-.36-.07-1.48-.18-2.23-2.71,0,0,0-.06,0-.09l4-30.95c3.15-13.16-2.77-15.66-4.68-16.12-6.73-1.61-15.84,6.44-23,20.2a.14.14,0,0,0-.06.05,80.64,80.64,0,0,1-16.18,7.44c1.9-3.81,4.07-9.6,1.79-13-1.06-1.57-3.4-3.16-8.49-1.76-9,2.47-15.19,12.08-14.38,18.37a6.87,6.87,0,0,0,4.45,5.81,10.54,10.54,0,0,0,2.4.6L804.07,417a35.21,35.21,0,0,1-3.52,4.68c-.49-2.67-.28-8.54.54-14.05l4.25-33.09a3,3,0,0,0-3-3.44,4.16,4.16,0,0,0-3.89,3.56l-4.22,33c-.08.51-.16,1-.2,1.52-16.77,18.85-22.91,19.63-24.39,19.45-.37-.08-1.49-.22-2.2-2.72l1.28-13.28.39-3.89,2.41-25a2.92,2.92,0,0,0-3.11-3.35,4.22,4.22,0,0,0-3.8,3.68L762,410.46,742.31,432c-11.62,11.61-16.07,11.86-17.17,11.67-.94-.16-1.67-1.08-2.13-2.7l5.1-53.06,26.17-7.22a4.13,4.13,0,0,0,3-4.33,2.94,2.94,0,0,0-3.87-2.44l-24.59,6.79v0l1.92-20.15a2.93,2.93,0,0,0-3.1-3.35,4.15,4.15,0,0,0-3.8,3.68l-2.11,21.78h0l-16,4.41a4.13,4.13,0,0,0-3,4.33,2.94,2.94,0,0,0,3.88,2.43l14.38-4-3.85,39.79a5.64,5.64,0,0,0-.83.72c-16.89,19.06-23.11,20-24.6,19.79-.39,0-1.52-.18-2.27-2.7v-.07l3.95-31c3.19-13.14-2.76-15.67-4.67-16.12-7.06-1.66-16.74,7.24-24.1,22.27-2.51,5.14-7,20.33-5.8,30.75h0c-9.85,8.63-15.8,11.31-18.11,10.79-.33-.08-1.2-.27-1.67-2.41-.32-1.49.93-7.07,1.94-11.56,2.61-11.59,5.57-24.73,0-30.12-2.4-2.31-5.9-2.85-10.4-1.61-8.26,2.28-16.65,19.07-22.92,35.1.28-3.06.59-6.28.91-9.65h0a1.59,1.59,0,0,0,0-.26s0-.06,0-.09c.46-4.77.95-9.8,1.48-15.17A2.92,2.92,0,0,0,607,425a4.17,4.17,0,0,0-3.8,3.67c-.52,5.23-1,10.12-1.44,14.79l0,0-6.2,16.32c-6.19,16.32-12,21.25-13.31,21.09-.33-.05-2.24-2.19-1.12-10.38a48.74,48.74,0,0,1,4.43-14.5c1.44-3.2,2.66-5.95,1.1-8.32-1.85-2.75-5.86-2.38-14.77-1.32l-2,.23c-1.4.18-2.81.36-4.21.5s-3,.24-4.52.3a99.91,99.91,0,0,0,.52-17.8c-.39-4.62-3.28-5.26-4.5-5.31-2.62-.12-5.2,1.65-7.36,3.4a18.88,18.88,0,0,0-7,12.08,12.08,12.08,0,0,0,3.57,10.54,14.83,14.83,0,0,0,7.11,3.54v0a3.39,3.39,0,0,0-1,.8l-24,26.95c-19.53,22.06-24.84,19.85-25.39,19.51-1.42-.83-2-3.4-2.11-6.77,9.8-9.64,21.67-22.31,27.32-31.82,4.54-7.63,3.35-11.89,2.25-13.72-1.46-2.51-4.34-3.6-7.87-3.05-6,.92-15.54,7.13-22.65,21.6-2.09,4.25-5.45,15.2-5.94,24.72-7,6.8-12.42,11.66-12.65,11.86-11.61,11.61-16.1,11.87-17.2,11.68-.91-.17-1.63-1.09-2.13-2.7l5.13-53.07,26.16-7.22a4.14,4.14,0,0,0,3-4.33,3,3,0,0,0-3.88-2.44l-24.61,6.8v0l2-20.16a2.93,2.93,0,0,0-3.1-3.35,4.14,4.14,0,0,0-3.8,3.68l-2.11,21.77v0l-16,4.41a4.13,4.13,0,0,0-3,4.33,2.94,2.94,0,0,0,3.88,2.43l14.38-4-4.78,49.62-.24,3.14.1.5c1.34,5.41,4.47,7.07,6.88,7.49a11,11,0,0,0,4.84-.32c5-1.37,11.15-5.81,18.82-13.49.41-.4,4-3.55,8.87-8.23.71,3,2.06,5.46,4.3,6.8,6.87,4.09,17.79-2.7,34.4-21.44l18.92-21.26a.2.2,0,0,0,0,.07c-.88,9.24-1.91,20-2.73,30.56a2.93,2.93,0,0,0,3.2,3.25,4.63,4.63,0,0,0,.7-.12,4.2,4.2,0,0,0,3-3.64c.82-10.45,1.78-20.74,2.71-30.42.27-3.08.66-6.14,1.05-9.22,0-.26,0-.47.09-.72,1.67,0,3.33-.15,5-.28s3-.33,4.42-.52l2-.26c2-.23,6-.7,8.21-.73l-.58,1.32a55.94,55.94,0,0,0-5,16.66c-2,14.71,3.69,17,6.18,17.29,6.19.74,13-6.64,19.13-20.44-.51,5.79-.92,10.85-1.23,15.08a2.91,2.91,0,0,0,3.2,3.24,2.78,2.78,0,0,0,.7-.12,4.19,4.19,0,0,0,3-3.64c0-.35.06-.76.09-1.13,7.61-25.5,19.72-53.93,26.16-55.7,3.18-.88,4.07,0,4.37.26,3.17,3.06.32,15.73-1.57,24.12-1.67,7.43-2.59,11.78-2,14.61,1.05,4.75,3.86,6.32,6,6.81,5.17,1.16,12.63-2.47,22.71-11h0a7.36,7.36,0,0,0,2.22,2.29c6.4,4.33,15.92-2.78,21.64-7.86a7.7,7.7,0,0,0,5.06,2.74,12.05,12.05,0,0,0,4.29-.41c5.64-1.56,12.78-7,22-16.68l-.21,2.54.14.49c1.34,5.41,4.47,7.07,6.84,7.5a10.83,10.83,0,0,0,4.84-.32c5-1.38,11.21-5.89,19.13-13.82l14-15.29-.33,3.28-.24,3.11.14.52c1.36,5.58,4.67,7.19,7.17,7.52a11,11,0,0,0,4.51-.37c5.44-1.5,12.33-6.63,21.06-15.73.15,5.88,1.65,9.22,4.45,9.95a5.09,5.09,0,0,0,2.71-.05c3.47-.95,6.66-5.23,9.19-9.08l22.17-32.85a114.71,114.71,0,0,0,18-6.75c-3.19,10.68-5.85,27.36,1.37,32.2,6.4,4.33,15.92-2.78,21.61-7.86a7.61,7.61,0,0,0,5.09,2.73,11,11,0,0,0,4.29-.41c6.61-1.82,15.3-9,26.94-22.11a3.46,3.46,0,0,0,0-4.92A3.51,3.51,0,0,0,904.25,381ZM506.16,469.7c4.93-10.09,11.42-15.62,15.72-16.81a7.68,7.68,0,0,1,.83-.19c.31-.05,1.43-.19,1.75.32s.34,2.67-2,6.57c-4.25,7.12-12.52,16.42-20.58,24.66A60.41,60.41,0,0,1,506.16,469.7Zm48.17-23.17a8.29,8.29,0,0,1-2.85-1.7,6,6,0,0,1-1.82-5.24,10.56,10.56,0,0,1,3.92-6.66,14.59,14.59,0,0,1,1.2-.92A93.27,93.27,0,0,1,554.33,446.53Zm132.32-30.66-4,30.06-.16,1.83c-8.46,7.87-13.23,9.61-14.9,8.49a4.31,4.31,0,0,1-1.54-2.55c0-.09,0-.21-.07-.31a2.43,2.43,0,0,0-.15-.71c0-.1,0-.17,0-.27-1.17-7.1,1.85-21.25,5-27.54,5.75-11.74,11.75-16.9,14.5-17.66a2.58,2.58,0,0,1,1-.09C687,407.32,688.17,409.71,686.65,415.87ZM830,378.48l-2,3a7.41,7.41,0,0,1-4,0,1.16,1.16,0,0,1-.85-1.1c-.36-2.74,3.34-8.31,8.37-9.7a7.06,7.06,0,0,1,1.7-.3C833.3,371.76,831.77,375.62,830,378.48Zm44.57-11.94-4,30-.16,1.83c-8.49,7.91-13.26,9.61-14.9,8.49-4.6-3.08-.75-23.48,3.12-31.38,5.79-11.75,11.75-16.9,14.53-17.67a1.9,1.9,0,0,1,1,0C875,358,876.11,360.34,874.6,366.54Z"/><path class="cls-1" d="M238.22,425.07a3,3,0,0,0,3.22.93,3.83,3.83,0,0,0,1.59-.89c.9-.78,11.32-10,23.15-21.31.68,3.35,2.06,6.05,4.46,7.52,6.87,4.1,17.79-2.73,34.4-21.47l10-11.28,0,0c-1.54,8.58-1.47,17,3.31,19.89a8.2,8.2,0,0,0,6.65.62c5.09-1.4,11.75-6.52,20.37-15.51l.11.45c1.34,5.4,4.47,7,6.86,7.47a10.85,10.85,0,0,0,4.84-.32c4.22-1.16,9.3-4.56,15.48-10.28a7.66,7.66,0,0,0,4.95,2.76,11.16,11.16,0,0,0,4.51-.38c5.69-1.57,13-7.15,22.28-17,.7,3.11,2,5.62,4.31,7a9.11,9.11,0,0,0,7.4.7c6.6-1.82,15.41-9.09,27-22.14l8.71-9.77-.81,8.28-.24,3.12.13.52c1.38,5.58,4.67,7.16,7.18,7.51a11,11,0,0,0,4.51-.37c5.21-1.44,11.77-6.28,20-14.67-.27,3.15-.5,6.07-.69,8.64a2.91,2.91,0,0,0,3.2,3.24,2.78,2.78,0,0,0,.7-.12,4.21,4.21,0,0,0,3-3.64c0-.35.06-.76.08-1.13,7.61-25.5,19.72-53.93,26.16-55.7,3.18-.88,4.08,0,4.37.26,3.18,3.06.32,15.73-1.57,24.12-1.67,7.43-2.59,11.78-2,14.61,1.06,4.75,3.87,6.32,6,6.81,5.16,1.16,12.63-2.47,22.7-11h0a7.62,7.62,0,0,0,2.22,2.3c6.4,4.33,15.92-2.78,21.64-7.9a7.44,7.44,0,0,0,5.06,2.74,11.21,11.21,0,0,0,4.33-.39c6.57-1.81,15.3-9,26.9-22.1a3.52,3.52,0,0,0,.08-4.93,3.56,3.56,0,0,0-4.91.66c-16.89,19.05-23.11,20-24.59,19.78-.4,0-1.52-.18-2.28-2.7v-.07l4-31c3.18-13.18-2.77-15.67-4.68-16.12-7-1.66-16.74,7.24-24.1,22.24-2.51,5.17-7,20.36-5.8,30.78h0c-9.84,8.62-15.8,11.3-18.11,10.78-.32-.08-1.19-.27-1.67-2.41-.32-1.49.93-7.08,1.95-11.57,2.61-11.58,5.56-24.72,0-30.11-2.4-2.31-5.89-2.85-10.39-1.61C506,293.18,497.58,310,491.3,326q1.05-11.25,2.43-25.17a2.93,2.93,0,0,0-3.11-3.34,4.17,4.17,0,0,0-3.8,3.67q-2,20.28-3.3,34.85c-16.06,17.85-22,18.66-23.48,18.45-.38,0-1.49-.21-2.23-2.7l4.1-42.15a2.92,2.92,0,0,0-3.1-3.34A4.18,4.18,0,0,0,455,310l-2.08,21.16L438.31,347.5c-19.55,22.07-24.84,19.84-25.38,19.52-4.66-2.8-.8-23.58,3.06-31.45,6.56-13.38,13.39-18.21,15.47-17.73.79.19,1.92,2.58.36,8.91l-2,9.8a3,3,0,0,0,2.68,3.71,4.13,4.13,0,0,0,4.1-3.31l1.94-9.63c3.3-13.34-2.69-15.87-4.61-16.33-7.08-1.7-16.75,7.25-24.1,22.24-2,4.17-5.3,14.66-5.9,24-16.73,18.81-22.87,19.64-24.36,19.42-.38,0-1.49-.2-2.23-2.69l4.1-42.16a2.92,2.92,0,0,0-3.1-3.34,4.19,4.19,0,0,0-3.8,3.68l-4,40.32-.13,1.63c-10.65,10.36-14.86,10.62-15.92,10.45s-1.66-1.07-2.13-2.69l9.23-95.68a2.92,2.92,0,0,0-3.11-3.33,4.12,4.12,0,0,0-3.79,3.68l-4.67,48.15a6.26,6.26,0,0,0-.92-.27c-7.28-1.62-19.1,5.83-27.61,23.2a66.33,66.33,0,0,0-2.82,7.16v0l-18.55,20.84c-19.53,22.07-24.84,19.82-25.38,19.51-1.55-.94-2.14-3.86-2.13-7.64,11.39-11.17,22.73-23.26,27.33-30.94s3.35-11.89,2.25-13.76c-1.46-2.47-4.34-3.6-7.87-3.05-6.05.9-15.57,7.17-22.65,21.59-2,4.14-5.26,14.52-5.91,23.84C252.27,408.34,239.19,419.9,239,420.1A3.65,3.65,0,0,0,238.22,425.07ZM554.44,297.4c5.75-11.75,11.74-16.94,14.49-17.7a2.34,2.34,0,0,1,1-.06c.81.2,1.94,2.59.41,8.75l-4,30.07-.16,1.83c-8.46,7.87-13.23,9.57-14.9,8.49a4.42,4.42,0,0,1-1.54-2.56,2.84,2.84,0,0,1-.06-.31,3.32,3.32,0,0,0-.15-.71,2.61,2.61,0,0,1-.06-.27C548.3,317.79,551.33,303.68,554.44,297.4ZM327.68,359.94c6.61-13.48,15.34-19.5,19.08-18.67,2.36.53,2.39,4.49,1.62,8a3.27,3.27,0,0,0,.13,1.77l-2.13,22c-19.18,21.6-23.62,19.33-23.8,19.22C318.76,390,323.14,369.2,327.68,359.94Zm-49.81,13.73c4.94-10.05,11.42-15.62,15.72-16.81a5.79,5.79,0,0,1,.83-.16c.32-.05,1.44-.19,1.75.32s.34,2.64-2,6.58c-3.45,5.82-11.47,14.69-20.39,23.7A59.05,59.05,0,0,1,277.87,373.67Z"/><path class="cls-1" d="M379.81,323.75a7.62,7.62,0,0,0,5.53-8,5.42,5.42,0,0,0-7.13-4.48,7.62,7.62,0,0,0-5.53,8C373.12,322.71,376.31,324.71,379.81,323.75Z"/><path class="cls-1" d="M460.3,301.54a7.62,7.62,0,0,0,5.53-8,5.42,5.42,0,0,0-7.13-4.48,7.63,7.63,0,0,0-5.53,8A5.42,5.42,0,0,0,460.3,301.54Z"/><path class="cls-1" d="M770.28,376.87a7.62,7.62,0,0,0,5.53-8,5.42,5.42,0,0,0-7.13-4.48,7.63,7.63,0,0,0-5.53,8A5.42,5.42,0,0,0,770.28,376.87Z"/><path class="cls-1" d="M924.49,117.41c-11.26-4.73-24.52-3.19-40.51,4.71-11.36,5.6-20.58,15.44-25.64,21.62.67-1.78,1.25-3.64,1.8-5.42a43.85,43.85,0,0,1,2.37-6.53c3.46-6.6,12.12-12.88,12.21-12.94l1.84-1.32-2.25.25c-17.11,1.88-24,17.31-26.29,22.37a186.93,186.93,0,0,0-6.9,19.69l-.06.21a130.84,130.84,0,0,0-22.7,25.78c0-.17,0-.4-.06-.77-.23-2.72-.94-11,3.22-16.64.57-.78,1.08-1.45,1.54-2.06,2.62-3.46,3.6-4.76,4.79-10,1.38-6.09,1-8.11,1-8.19l-.23-1.13-.79.83c-.52.56-12.88,13.7-14.47,20.2s3.65,17.78,3.88,18.25l.34.72A111.82,111.82,0,0,0,807,207.78c-.32-3.33-.62-6.63-.91-9.92-.56-6.35-1.1-12.36-1.8-18.13-1-8.23-1-11.41-1.25-23.25l-.13-7c-.29-14.53,3.06-21.77,6-28.16.65-1.41,1.26-2.73,1.83-4.11,1.3-3.16,3-7.12,5-11.32,1.68-.27,7.15-1.28,7.68-3.26a1.66,1.66,0,0,0-.76-1.75,2.89,2.89,0,0,0-2.43-.62,5.47,5.47,0,0,0-2.56,1.48c1.36-2.86,2.75-5.75,4.11-8.49l.74-.06c.79-.06,7.81-.67,9-3.19a2.12,2.12,0,0,0-.39-2.26,2.66,2.66,0,0,0-2.28-1.18c-2.17.06-4.54,2.67-5.84,4.36,2.07-4.09,4-7.71,5.52-10.22a23.81,23.81,0,0,0,1.88-4h0c.13-.36.3-.72.42-1.07,1.54,0,6.12-.23,7.59-2.12a2.24,2.24,0,0,0,.39-2,1.77,1.77,0,0,0-1.26-1.39c-1.62-.43-4.26,1.52-6,3a32.54,32.54,0,0,0,.87-9.53,3.91,3.91,0,0,0,2.69-4.38L834.85,58a3.91,3.91,0,0,0-7.71,1.33l.21,1.27a4,4,0,0,0,1.6,2.53,4,4,0,0,0,1.92.7c.11,0,.22,0,.33,0a32.52,32.52,0,0,1-1.36,10.89c-.57-1.94-2.25-7-4.92-8.12a3,3,0,0,0-2.74.16,2.18,2.18,0,0,0-1.3,1.94c0,3,7.47,7,8.32,7.47l.12.06a23.1,23.1,0,0,1-1.86,3.9c-1.48,2.45-3.35,5.94-5.36,9.89,0-2.08-.21-7.3-2.08-8.35a1.74,1.74,0,0,0-1.89.15A2.47,2.47,0,0,0,817,83.68c-.32,2.85,3.67,6.92,4.13,7.38l.32.32c-2.14,4.26-4.39,8.94-6.45,13.41-.38-1.46-2-7-4.6-8.08A2.44,2.44,0,0,0,808,97a2.08,2.08,0,0,0-1.1,1.89c.1,2.87,6.51,6.46,7.25,6.87l.28.15c-1.86,4-3.53,7.84-4.78,10.89-.56,1.35-1.17,2.67-1.81,4.06-.51,1.09-1,2.2-1.53,3.37-2.11-3.07-9.84-15.65-6.87-32,0-.18.07-.37.1-.56l.57-.42c1.23-.91,12-9,11.75-12.93a2,2,0,0,0-1.06-1.7,2.51,2.51,0,0,0-2.18-.19c-3.3,1.12-6.94,8.5-8.56,12.12.73-4.68,1.31-9.69,1.78-14.59l.4-.15c.74-.3,7.32-3,8.1-6.23a2.76,2.76,0,0,0-.71-2.55,2.27,2.27,0,0,0-2.25-.89c-2.28.46-4.31,4.77-5.31,7.26.42-4.76.73-9.32.95-13.26l.55-.44c.69-.55,6.69-5.44,6.52-8.31a1.89,1.89,0,0,0-.94-1.53,1.92,1.92,0,0,0-1.8-.15c-1.91.79-3.39,4.78-4.16,7.32.23-4.55.33-7.88.37-9.13A3.94,3.94,0,0,0,807,42.31l.09-1.05a3.92,3.92,0,1,0-7.8-.69l-.09,1a3.9,3.9,0,0,0,3.17,4.17c0,1.55-.19,6.51-.58,13.05-.89-2.38-3.5-8.66-6.81-10.2a3.38,3.38,0,0,0-2.76-.13,1.94,1.94,0,0,0-1.39,1.63c-.32,3.25,8.61,9.16,10.41,10.31l.44.28c-.27,4.32-.63,9.18-1.12,14.14-.7-1.07-3.83-5.65-6.89-6.18a3.1,3.1,0,0,0-2.53.63,1.79,1.79,0,0,0-.81,1.84c.56,2.55,8.2,4.47,9.73,4.83l.38.09c-.49,4.79-1.1,9.63-1.85,14.09-.55-.9-5.42-8.59-10.45-6.87-1.13.38-1.37,1-1.37,1.44,0,2.28,7.81,5.23,11.17,6.4l.46.15-.12.68a43,43,0,0,0-.32,13.27,9.08,9.08,0,0,0-3.26-3.07,5.84,5.84,0,0,0-6,0l-1.39.83c-2.92,1.71-4.38,2.57-4,6.2.42,4.14,3.44,6.68,5.45,6.93l.33,0h.16c-.53,2.78-2.5,13.8-1.65,19.68.66,4.56,1.95,12.1,2.68,16.28a39.44,39.44,0,0,0-2.77-4.12c-4.46-5.74-10.58-10.75-16.76-14.89l-.13-.62c-.34-1.69-3.41-16.59-5.73-19.1a1.49,1.49,0,0,0-2-.47c-1.8,1.09-2.19,7.39-.08,13.18a12.09,12.09,0,0,0,1.69,3.12,141.72,141.72,0,0,0-18.43-9,8.67,8.67,0,0,0-.28-7.49c-2.08-3.49-3.12-5-5.09-6h0c-2.31-1.13-6.38-.5-9.27,1.43a7.73,7.73,0,0,0-3.75,7c0,.8.08,1.54.1,2.21.21,4.66.3,6.79,4.78,8.6a11.94,11.94,0,0,0,3.41.83c3.77.33,7-1.23,8.18-2.89a17.06,17.06,0,0,0,1.48-2.64A139.94,139.94,0,0,1,768.45,133c-.17,0-.32-.06-.5-.07-3.72-.19-7.76,1.13-8.15,2.66a1.14,1.14,0,0,0,.77,1.36,5.67,5.67,0,0,0,1.72.35,80.24,80.24,0,0,0,11-.42l.7-.07a64.64,64.64,0,0,1,12.6,11.9c9.07,11.68,13.43,33.55,15.28,46.11a40.94,40.94,0,0,0-7.57-12.53l-.38-.45c-.08-.09-.14-.18-.22-.26a65,65,0,0,0-7.8-7.47l0-.2c-.34-1.69-3.41-16.58-5.73-19.1a1.49,1.49,0,0,0-2-.47c-1.8,1.1-2.19,7.39-.08,13.18a13.62,13.62,0,0,0,.85,1.84,66.47,66.47,0,0,0-6.5-3.3c-.07,0-10.44-5.64-15.24-11.26,1-1.86,1.88-4.59.6-7.12-1.53-3-2.31-4.31-3.9-5.21h0c-1.86-1.07-5.28-.77-7.78.67a6.48,6.48,0,0,0-3.51,5.65c0,.66,0,1.26,0,1.81-.09,3.76-.13,5.65,3.51,7.41a9.93,9.93,0,0,0,3.4.94c2.86.25,5.35-.81,6.33-2.05a11.32,11.32,0,0,0,.73-1c5,5.67,14.92,11,15.35,11.25a62.1,62.1,0,0,1,9.09,4.9,11.39,11.39,0,0,0,3,2.12c1.37,1,2.58,2.05,3.66,3a14.71,14.71,0,0,0-2.09-.74c-5.95-1.58-12.19-.63-13.12,1.26a1.49,1.49,0,0,0,.65,1.93c2.65,2,18.39,3.84,20.86,4.11a39.23,39.23,0,0,1,9.17,28.85c-.31,2.74-1.59,13.7-2.3,16.52l1.2.1c.7-2.81,2-13.75,2.28-16.48a37.41,37.41,0,0,0-.11-8.44v0c0-.34-2.57-30.17-12.22-49.09a.53.53,0,0,0,0-.25c0-.13-2.26-12.75-3.2-19.25,0-.1,0-.22,0-.33l.26-.26c.82-.8,8-7.89,8.62-10.13a1.17,1.17,0,0,0-.55-1.5c-1.48-.71-5.25,1.63-7.61,4.74a8.62,8.62,0,0,0-.78,1.26,119.79,119.79,0,0,1,1.77-13.26c1.92,0,4.82-.52,6.29-2.94a16,16,0,0,0,2-3.9,45.6,45.6,0,0,0,7.07,16.16c-2.3,5.59-4.29,12.59-4.06,24l.12,7c.22,11.88.27,15.08,1.27,23.36.7,5.76,1.23,11.75,1.79,18.1.37,4.09.74,8.22,1.16,12.37-1.37,3.86-3.11,15.57-3.89,18.89l1.19.11c.6-2.53,2.06-13.32,3-16.18.3,2.79.63,5.58,1,8.39l.95-2c-.49-3.74-.64-5.41-1-9.12.85-2.38,1.83-4.86,3-7.41a162.64,162.64,0,0,1,20.65-1.72c11.57-.17,17.92-15.1,18.18-15.73l.62-1.49-1.44.73c-.13.06-13,6.53-20.34,7a25.38,25.38,0,0,0-15.4,6.4,115.53,115.53,0,0,1,11.32-18.07l1.27-.94c.09-.07,9.07-6.54,23.82-4.1,6.37,1.05,13.76-1.11,21.4-6.26a60.88,60.88,0,0,0,9.68-8.13l1.31-1.43-1.88.45c-.16,0-15.3,3.57-21.84,2.71a33.43,33.43,0,0,0-22.51,4.8c3.15-3.17,6.58-6.31,10.34-9.42l6.84-5.28h0a1.22,1.22,0,0,0,.5-.08c1.58-.51,6.8-.09,11.84.31,3.58.29,7.28.59,10.4.64,8.06.16,17.15-12.07,17.54-12.59l1.33-1.81-2,.91c-4.23,1.87-16.36,2.73-16.49,2.73-3.24-.08-9.15,1.94-14.25,4.1a109.05,109.05,0,0,1,12.33-5.51c2-.7,4-1.25,5.9-1.78,6.19-1.71,12.61-3.48,18.65-10.21,5.59-6.23,20-9.33,24.67-10.35,2.12-.46,2.16-.47,2.21-1l0-.43ZM828.84,87.78H829a1.56,1.56,0,0,1,1.11.7c.41.55.34.87.26,1.06-.55,1.21-4,2-6.66,2.36C825,90.22,827.2,87.82,828.84,87.78Zm8.22-16.52.14,0c.09,0,.3.08.42.54a1.06,1.06,0,0,1-.18,1c-.85,1.09-3.6,1.49-5.57,1.61C833.69,72.81,836,71.16,837.06,71.26Zm-7.42-9.12a2.66,2.66,0,0,1-1.11-1.76l-.22-1.26a2.72,2.72,0,0,1,5.37-.93l.21,1.27a2.66,2.66,0,0,1-.46,2,2.69,2.69,0,0,1-1.76,1.12A2.73,2.73,0,0,1,829.64,62.14Zm-7.57,6.53c0-.22.07-.54.69-.88a1.94,1.94,0,0,1,1.11-.27,2.16,2.16,0,0,1,.58.15c1.83.8,3.31,4.39,4.06,6.73C825.64,72.74,822.09,70.19,822.07,68.67Zm-3.94,15.14a1.28,1.28,0,0,1,.64-1,.86.86,0,0,1,.51-.17.27.27,0,0,1,.16,0c.92.51,1.36,3.67,1.45,6.4C819.61,87.59,818,85.29,818.13,83.81Zm2.33,17.65a1.37,1.37,0,0,1,.49,0,1.73,1.73,0,0,1,1,.41c.1.08.4.34.36.51-.19.71-2.73,1.6-5.38,2.15C817.77,103.27,819.16,101.7,820.46,101.46ZM808.1,98.84c0-.21,0-.52.55-.85a1.38,1.38,0,0,1,.89-.27,1.19,1.19,0,0,1,.36.09c1.56.62,2.88,3.93,3.57,6.16C811.05,102.47,808.15,100.24,808.1,98.84ZM809,77.51a1.72,1.72,0,0,1,.65-.1,1.29,1.29,0,0,1,.55.19.85.85,0,0,1,.47.73c.11,2.2-5.18,7.14-9.47,10.54C803,84.81,806.38,78.4,809,77.51Zm-1.39-12.26a1.17,1.17,0,0,1,.27,0,1.36,1.36,0,0,1,.86.53,1.56,1.56,0,0,1,.44,1.49c-.44,1.84-3.88,3.8-6.13,4.84C804.19,69.21,806.08,65.56,807.62,65.25Zm.2-16.49a.74.74,0,0,1,.35-.06.83.83,0,0,1,.37.13.69.69,0,0,1,.37.58c.08,1.38-2.4,4.08-4.62,6.08C805.14,52.66,806.52,49.3,807.82,48.76Zm-7.44-7,.1-1a2.72,2.72,0,1,1,5.42.47l-.09,1.05a2.73,2.73,0,0,1-5.43-.47ZM792,50.25c0-.1,0-.39.65-.63a2.12,2.12,0,0,1,1-.14,2.37,2.37,0,0,1,.86.24c2.57,1.2,4.82,6.08,5.87,8.71C796.55,55.82,791.85,52,792,50.25Zm-.52,20.65c0-.07-.06-.29.39-.65a1.89,1.89,0,0,1,1.38-.41l.2,0c1.85.33,4,2.8,5.35,4.58C795.53,73.53,791.75,72.06,791.49,70.9ZM788,84.74s.15-.17.57-.32a3.57,3.57,0,0,1,1.44-.17c2.67.24,5.27,3.26,6.65,5.14C791.8,87.58,787.92,85.53,788,84.74Zm-44.77,38.51c-1.31,1.88-5.81,3.42-10.16,1.65-3.77-1.53-3.84-3.05-4-7.55,0-.68-.06-1.42-.11-2.23a6.58,6.58,0,0,1,3.23-6c2.53-1.69,6.15-2.29,8.09-1.35h0c1.6.78,2.46,1.94,4.59,5.51C747.17,117.34,743.61,122.66,743.19,123.25ZM764,125.69c-2-5.58-1.48-11.11-.42-11.76a.11.11,0,0,1,.08,0,.8.8,0,0,1,.41.28c1.64,1.78,4.12,12.31,5.21,17.42A10.63,10.63,0,0,1,764,125.69Zm-2.86,10.21a.46.46,0,0,1-.16-.1c.19-.43,3.14-1.85,7-1.66a6.58,6.58,0,0,1,4.08,1.68C768,136.18,762.24,136.45,761.09,135.9Zm-6.23,20.28c-1.15,1.44-4.86,2.43-8.28.78-3-1.43-2.93-2.56-2.84-6.31,0-.56,0-1.17,0-1.84a5.31,5.31,0,0,1,2.91-4.62c2.38-1.37,5.28-1.42,6.59-.67s1.89,1.7,3.42,4.72C758.4,151.6,755.23,155.72,754.86,156.18Zm26.88,14.95a10.56,10.56,0,0,1-2.57-4c-2-5.58-1.47-11.11-.42-11.75a.12.12,0,0,1,.08,0,.8.8,0,0,1,.41.28c1.64,1.78,4.11,12.25,5.2,17.38C783.59,172.39,782.7,171.76,781.74,171.13Zm-7.92,7.57c-.15-.11-.38-.32-.31-.46.42-.86,3.75-1.67,7.88-1.31a23.17,23.17,0,0,1,3.86.67,16.36,16.36,0,0,1,7.55,4.82C787.05,181.74,775.71,180.15,773.82,178.7Zm16.6-49.79c2.41-3.17,5.47-4.6,6.09-4.41a.64.64,0,0,1,0,.15c-.34,1.32-4.46,5.76-7.47,8.76A6.84,6.84,0,0,1,790.42,128.91Zm5.31-16.28c-1.73,2.84-6.3,2.36-6.82,2.31-1.61-.2-4.07-2.53-4.42-5.87-.3-2.87.57-3.38,3.42-5.06l1.41-.83a4.66,4.66,0,0,1,4.81,0c2.15,1.15,3.52,3.31,3.57,4.64S797.3,110.06,795.73,112.63ZM828,193.07c6.09-.42,15.56-4.66,19.26-6.41-1.93,3.78-7.68,13.36-16.38,13.49a163.13,163.13,0,0,0-18.44,1.4c3.32-2.19,10.51-6.09,18.34-4.9,4.56.69,9.12-2.62,11.1-4.7.75-.78.85-1.09.79-1.4a.58.58,0,0,0-.7-.46.59.59,0,0,0-.46.46c-.49.81-5.61,5.69-10.55,4.93-7.88-1.21-14.93,2.33-18.59,4.67C815.62,196.33,821.67,193.5,828,193.07Zm-11-11c-1.12-4.2-3-14.16,3.13-18.33,4.31-2.94,5.9-9.08,6-9.34a.59.59,0,0,0-.43-.72.61.61,0,0,0-.73.43c0,.06-1.55,6-5.48,8.65s-4.89,7.2-4.84,11.46a15.13,15.13,0,0,1,0-5.84c1.26-5.16,10.16-15.27,13.18-18.58a38.49,38.49,0,0,1-1,6.31c-1.14,5-2,6.15-4.58,9.55l-1.55,2.07C817.25,172.21,816.83,178.15,816.94,182.05Zm40.48-18.36c5.36.72,15.86-1.34,20.27-2.29C873.57,165.35,861.18,176,849.1,174c-1.13-.18-2.23-.32-3.29-.41A35,35,0,0,0,826.66,177c1.62-2.1,4.12-4.87,5.29-6.12l.18-.13C836.13,167.86,844.47,162,857.42,163.69Zm-3-14.75a9,9,0,0,1-1.56,1.72h0c-1,.73-2,1.46-3,2.19a69.46,69.46,0,0,0,5.73-13.77c1.92-7.36,9.51-13.72,9.58-13.78a.59.59,0,0,0,.08-.84.61.61,0,0,0-.84-.08c-.32.27-7.95,6.67-10,14.4-1.82,7-6.33,14.86-6.94,15.91-1,.75-1.89,1.5-2.8,2.25l-1.88,1.46a170.47,170.47,0,0,1,6.32-17.77c2.1-4.68,8.28-18.49,23.08-21.34-2.82,2.26-8.11,6.94-10.73,11.93A43.22,43.22,0,0,0,859,138c-1.1,3.53-2.31,7.4-4.07,10.19Zm27.85-3.48c-.09,0-9.64,1.76-12.77,1.51a38.06,38.06,0,0,0-8,1c4.84-2.12,10.53-4.18,13.9-4.09.49,0,9.7-.68,15-2.15-2.75,3.31-9.5,10.64-15.3,10.53-3.08-.05-6.76-.35-10.32-.63-3.86-.31-7.36-.59-9.76-.55.43-.23.94-.49,1.48-.75,1.3-.33,10-2.43,12.92-2.21,3.28.26,12.68-1.45,13.08-1.53a.6.6,0,0,0,.48-.69A.61.61,0,0,0,882.23,145.46Zm14.87-16.93c-5.81,6.47-11.77,8.12-18.08,9.86-1.31.36-2.64.74-4,1.16,6.55-3.47,12.59-7.1,14.35-10,3.61-5.87,20.07-10.34,20.24-10.39a.6.6,0,1,0-.31-1.15c-.7.19-17.09,4.65-21,10.91-2.33,3.79-13.81,9.57-22.19,13.8-3.63,1.83-6.76,3.4-8.39,4.44h0l-.19.12-.94.51c3.79-5.08,14.29-18,27.86-24.66,14.84-7.32,27.23-9.08,37.8-5.34C916.92,119,902.92,122.05,897.1,128.53Z"/><path class="cls-1" d="M754.11,149.69a3,3,0,0,0-2.79.2A2.4,2.4,0,0,0,750,152v.54c0,1.2,0,2,1.31,2.65a3.47,3.47,0,0,0,1.18.32,2.73,2.73,0,0,0,2.3-.77,3.14,3.14,0,0,0,.64-3.27A3.64,3.64,0,0,0,754.11,149.69Zm-.22,4.28a1.89,1.89,0,0,1-2,.12c-.66-.32-.66-.43-.64-1.54V152a1.19,1.19,0,0,1,.69-1,2.22,2.22,0,0,1,1.26-.29.94.94,0,0,1,.34.08c.27.16.43.38.88,1.27C754.73,152.64,754.23,153.54,753.89,154Z"/><path class="cls-1" d="M740.81,115.93a3,3,0,0,0-2.59,1.06,2.38,2.38,0,0,0-.58,2.37l.16.53c.35,1.15.58,1.9,2.06,2.11l.17,0a3,3,0,0,0,3-1.52,3.12,3.12,0,0,0-.39-3.3A3.73,3.73,0,0,0,740.81,115.93Zm1.11,4.15a1.89,1.89,0,0,1-1.9.74c-.72-.1-.76-.21-1.08-1.27l-.16-.55a1.19,1.19,0,0,1,.32-1.21,2.09,2.09,0,0,1,1.41-.7h.06c.3.06.52.23,1.23.94C742.31,118.55,742.11,119.56,741.92,120.08Z"/><path class="cls-1" d="M790.91,108.44a2.38,2.38,0,0,0-2.35.66l-.38.4c-.84.86-1.39,1.43-.84,2.83a3.21,3.21,0,0,0,2.48,2,2.38,2.38,0,0,0,.38,0,3.17,3.17,0,0,0,2.69-2,3.63,3.63,0,0,0,.2-2.22A3,3,0,0,0,790.91,108.44Zm.83,3.63c-.19.7-1.17,1-1.72,1.11a1.91,1.91,0,0,1-1.57-1.29c-.27-.68-.19-.77.58-1.57l.4-.4a1.13,1.13,0,0,1,1-.36l.24,0a2,2,0,0,1,1.32.94C792.05,110.84,792,111.11,791.74,112.07Z"/><path class="cls-1" d="M834.5,172.5a.53.53,0,0,0,.22,0c.11,0,10.63-3.09,17.36-2.31,7.1.8,16.35-4.15,16.74-4.37a.58.58,0,0,0,.24-.8.59.59,0,0,0-.81-.24c-.09.05-9.09,4.84-15.77,4.26l-.27,0c-7-.78-17.38,2.22-17.82,2.35a.59.59,0,0,0,.11,1.16Z"/><path class="cls-1" d="M391.27,276.45,382,278.88l.05,20.34,9.24-2.42c6.65-1.75,11.2-7,11.19-13.12S397.92,274.71,391.27,276.45Zm-.2,16.54-4.29,1.13,0-12.62,4.3-1.13c4-1.06,6.69.66,6.7,4.56S395.12,291.93,391.07,293Z"/><polygon class="cls-1" points="422.33 284.88 422.32 280.17 431.76 277.69 431.75 274.03 422.31 276.5 422.3 272.08 432.99 269.28 432.98 265.5 417.61 269.54 417.66 289.88 433.41 285.75 433.4 281.97 422.33 284.88"/><polygon class="cls-1" points="473.26 271.45 473.23 254.94 468.52 256.18 468.56 276.52 483.47 272.61 483.46 268.77 473.26 271.45"/><path class="cls-1" d="M504.23,246.81l-9,22.72,4.82-1.26,1.79-4.83,9.44-2.48,1.81,3.88,4.94-1.29-9.14-18Zm-.9,12.65,3.2-8.64,3.24,6.95Z"/><path class="cls-1" d="M908.48,356.36a4.76,4.76,0,0,0-1.16-.9,3.38,3.38,0,0,0,2.12-1,2.88,2.88,0,0,0,.7-2,3.07,3.07,0,0,0-.46-1.68,2.44,2.44,0,0,0-1.25-1,7.45,7.45,0,0,0-2.48-.29h-4.54v10.67h2.16v-4.45H904a3.58,3.58,0,0,1,1.09.12,1.75,1.75,0,0,1,.65.44,16,16,0,0,1,1.13,1.57l1.56,2.32H911l-1.3-2.08A12.47,12.47,0,0,0,908.48,356.36ZM905.16,354h-1.59v-2.7h1.68c.87,0,1.4,0,1.57,0a1.32,1.32,0,0,1,.81.42,1.24,1.24,0,0,1,.29.87,1.35,1.35,0,0,1-.22.8,1.13,1.13,0,0,1-.6.45A8.12,8.12,0,0,1,905.16,354Z"/><path class="cls-1" d="M905.63,345.82a9.43,9.43,0,1,0,9.43,9.43A9.43,9.43,0,0,0,905.63,345.82Zm0,17.39a8,8,0,1,1,8-8A8,8,0,0,1,905.63,363.21Z"/><path class="cls-1" d="M875,436.48l5.25-1.46-.17,6.92a2.87,2.87,0,0,1-2.18,3,2.59,2.59,0,0,1-2.73-.83l-2,2.77a3.58,3.58,0,0,0,2,1,6.43,6.43,0,0,0,2.77-.22,7.71,7.71,0,0,0,4-2.45,7.11,7.11,0,0,0,1.47-4.4l.23-9.44-8.68,2.42Z"/><polygon class="cls-1" points="900.94 433 897.11 427.65 893.44 428.68 898.99 436.42 898.86 441.61 902.31 440.65 902.44 435.5 908.48 424.49 905.09 425.44 900.94 433"/><path class="cls-1" d="M924.87,431.78a4.63,4.63,0,0,1-2.46.09,2.73,2.73,0,0,1-1.66-1.18,3.75,3.75,0,0,1-.54-2.24,5.88,5.88,0,0,1,.66-2.58,6.71,6.71,0,0,1,1.74-2.12,6.86,6.86,0,0,1,2.49-1.28,3.75,3.75,0,0,1,3.71.66l2.27-2.61a4.68,4.68,0,0,0-2.58-1.18,8.37,8.37,0,0,0-3.5.31,11.6,11.6,0,0,0-4.17,2.12,11.35,11.35,0,0,0-3,3.49,9,9,0,0,0-1.15,4.16,5.78,5.78,0,0,0,.95,3.59,4.82,4.82,0,0,0,2.84,1.87,8.06,8.06,0,0,0,4.1-.18,11.49,11.49,0,0,0,3.54-1.65,10.71,10.71,0,0,0,2.7-2.67L928.67,429A7,7,0,0,1,924.87,431.78Z"/><path class="cls-1" d="M309.53,233h0l-25.62,7.18a4.67,4.67,0,0,1,4.46,4.24l2.56,32.37c.16,2-1,4.4-3.58,6.77l21.2-5.94c-2.84-.85-4.32-2.47-4.48-4.51l-.91-11,8.57-2.4C326.06,255.71,323.88,229,309.53,233Zm-6.45,28.09-2-24.84c5.1-1.43,6.81-.87,7.69,10.2C309.7,257.79,308.2,259.68,303.08,261.11Z"/><path class="cls-1" d="M358.94,219.08c-13.9,3.84-18.2,16.75-17.4,27.4s6.8,20.75,20.64,16.92,18.14-16.76,17.34-27.4S372.72,215.28,358.94,219.08Zm3.16,43.22a4.85,4.85,0,0,1-3.67-.31,3.31,3.31,0,0,1-1.71-2.72L354.24,226c-.18-2.44,1.93-5.05,4.72-5.82a4.82,4.82,0,0,1,3.67.31,3.3,3.3,0,0,1,1.71,2.72l2.48,33.25C367,258.92,364.89,261.53,362.1,262.3Z"/><path class="cls-1" d="M441.16,234.1c-.06-.82-.23-2.75-.27-3.23-.67-7.94-5.43-10.3-12.51-8.79,13.57-5.35,12.2-26.37-4.6-21.58l-23.59,6.73a4.64,4.64,0,0,1,4.48,4.22l2.7,32.42c.17,2-1,4.33-3.56,6.72l19.37-5.53c-1.54-.65-2.51-2.32-2.73-5.06-.39-4.59-1.23-14.67-1.23-14.67,5.75-1.64,7.23-1,8,7.93.7,8.37,4,9.53,9.62,7.92l8.21-2.34C442.21,238.27,441.35,236.31,441.16,234.1Zm-22-9.95-1.74-20.93c5.1-1.45,5.48-.39,6.26,8.93C424.37,221,424.24,222.69,419.12,224.15Z"/><path class="cls-1" d="M463.77,189.48l-.83,8c2-5.43,4-8,9-9.45l4.35-1.24s2.78,32.69,3.14,37c.17,2-1.12,4.45-3.58,6.81l21.29-6.08c-2.73-.88-4.36-2.45-4.53-4.49-.37-4.28-3.15-37-3.15-37l4.35-1.24c5.05-1.45,7.37-.1,10.17,4l-2.12-7.17Z"/><path class="cls-1" d="M562.94,199.84l-15.78-34.55L530.47,170c3.59.4,4.6,2.49,4,5.39L527.21,210c-.7,2.84-2.82,4.9-5.61,7.14l10.18-2.87c-2.88-.53-3.77-1.74-3.21-5.14l1.17-5.47,16.78-4.74,2.15,5.55c.87,2.32-.32,4.17-3.17,5.93l23.19-6.54C564.63,203.09,563.73,201.58,562.94,199.84ZM530,202.22l5.74-26.82,10.31,22.28Z"/><path class="cls-1" d="M589.29,198.68l38-11-.45-9.13c-1.78,6.24-4.09,8.69-8.94,10.1-1.27.37-11.37,3.52-11.37,3.52l-4.22-36.33c-.16-1.54.49-4.29,3.55-6.44l-21.45,6a4.81,4.81,0,0,1,4.58,4.35l3.79,32.15C593,193.92,591.87,196.28,589.29,198.68Z"/><path class="cls-1" d="M735.48,169.05a143.67,143.67,0,0,0-85.22,127L647.78,370l5.85.2,2.48-73.94a137.87,137.87,0,0,1,81.77-121.87Z"/><path class="cls-1" d="M873.24,179.6l-3.19,4.91a137.7,137.7,0,0,1,63.19,121l-3.46,103L758.34,458.45l1.63,5.63L935.49,413l3.6-107.24A143.5,143.5,0,0,0,873.24,179.6Z"/><path class="cls-1" d="M892.77,156.44,889,162.33A160.28,160.28,0,0,1,962.5,303.22l-3.85,114.64-18.28,5.42v6.14l25.3-7.33,3.85-118.64C971.52,243.88,942.83,188.93,892.77,156.44Z"/><path class="cls-1" d="M695.66,164.46v0a158.6,158.6,0,0,1,30.47-16.3l-2.95-6.38a165.36,165.36,0,0,0-17.73,8.42l-.05-.08A167.22,167.22,0,0,0,619,291.69l-3.85,114.64,7,.23L626,291.92A160,160,0,0,1,695.66,164.46Z"/><path class="cls-1" d="M811,341.39l46.74-33.28.39-.3,5.26-17-6-11.48a3.52,3.52,0,0,0-.5-.89l1.07-10.78-.49-.5a41.12,41.12,0,0,0-6.42-5.3l-.69-7.42-.73-.37c-3.41-1.71-11.71-5.49-14.72-3.71a33,33,0,0,0-4.58,4.74l1.4-14.78L811.12,209l-1.28,1.2c-.09.09-9.54,9.25-.77,22.57l6.54,11.5-11.88,30.31L793.2,257l9.33-14.64.16-.36c.15-.5,3.69-12.29-2.4-17.4l-1-.83-.94.89c-2.23,2.07-21.85,20.49-22.73,27.53-.78,6.23-2.1,29.8-2.33,34l-11.1,9.9-42.33,18.79-2.62,42.54a14,14,0,0,1,3.09-2.48l2.34-38.11,40.9-18.15,12.58-11.11,0-.6c0-.28,1.5-27.82,2.32-34.41.55-4.34,12.61-17.06,20.78-24.78,3,4,1,11.89.65,13.18l-10.18,16,15.14,25.32-1.9,16.2-9,14.32-14.76,5.07,1,2.77L796,315.21l9.69-15.48,2.07-16.43.22.5a7.53,7.53,0,0,0,4,3.74,6.46,6.46,0,0,0,1.94.36,8.53,8.53,0,0,0,4.13-1c.31-.15.66-.37,1-.54l-8.48,8.83-.74.78.52.95a8.26,8.26,0,0,0,6.72,3.66,14.71,14.71,0,0,0,7.56-2.18l1.58-.92-4.63,4.05.06.75a5.88,5.88,0,0,0,2.9,4.28c2.61,1.43,6.43.93,11.34-1.52l16.87-8.28-1.29-2.62-16.88,8.28c-3.86,1.92-6.91,2.48-8.59,1.59a2.77,2.77,0,0,1-1.24-1.37l16.36-14.25c6.51-5.43,10.13-7.8,12-8.84a1,1,0,0,1,.84,0c.31.12.54.39.74,1l5.6,10.66L855.65,306,810.12,338.6,780.06,345l-41,14.57a12.08,12.08,0,0,1,1.26,2.64l40.52-14.4Zm-2.88-59.09-.34.43.15-1.12-2.33-3.87L818.84,244l-7.27-12.79c-5.66-8.58-2.73-14.88-.86-17.52l18,27.39L827,259C820,267.31,810.71,279,808.14,282.3Zm8.59,2a4.74,4.74,0,0,1-3.75.52,4.13,4.13,0,0,1-1.91-1.47c9-11.45,23.4-29.18,25.29-30.41,1-.57,6.15,1,11.2,3.46l.38,4a3.8,3.8,0,0,0-3.07.16c-1.24.75-7.29,6.75-14,13.61C828.51,276.1,821.35,281.94,816.73,284.27Zm37.38-7.65a3.81,3.81,0,0,0-2.44.36,74,74,0,0,0-9.62,6.82h0c-.12.08-13.19,8.86-18.87,12s-8.44,1.58-9.64.45c5.77-6,13.08-13.6,19.36-20l.69-.57-.06-.06c6.58-6.7,11.89-12,12.85-12.56.88-.35,4.71,2,8.5,5.71Z"/></svg>