<svg id="Capa_1" data-name="Capa 1" xmlns="http://www.w3.org/2000/svg" viewBox="0 0 792 612"><defs><style>.cls-1{fill:#fff;}</style></defs><path class="cls-1" d="M327.68,511.57l-9,2.8L320,497.71c0-1.81.12-3.74.24-5.61.39-6.31.79-12.83-2.79-17.63a8,8,0,0,0-7.7-3.58c-3.92.48-8.17,3.75-11.67,9-4.78,7.13-5.81,15.79-6.72,23.44-.22,1.85-.44,3.67-.71,5.49l-1.75,14.92-12.31,3.84c-2,.42-3.38.18-4.31-.74-1.75-1.72-1.55-5.61-1.31-7.11l7.62-81.25c.16-5.8.41-10.62.63-14.87.64-12.54,1-18.83-2.55-23.54a8,8,0,0,0-7.7-3.58c-3.93.49-8.17,3.75-11.67,9a65.87,65.87,0,0,0-6.78,13.72c-.15-3.68-.86-7.15-3-10a8,8,0,0,0-7.71-3.58c-3.92.49-8.17,3.76-11.66,9A67.09,67.09,0,0,0,221,429.11a36.84,36.84,0,0,0-1.76-10.28c-1.8-5.06-5.2-5.2-7.06-4.83-5.95,1.17-12.61,10.5-14.18,17.44a1.6,1.6,0,0,0,1.38,2.06,2.22,2.22,0,0,0,2.25-1.73c1.34-5.94,7-13.31,10.73-14,.54-.1,2.19-.43,3.35,2.84,2.13,6,1.73,14.36,1.39,21.75l-.11,2.4c-.73,17-3,34.68-5.32,51.35a1.58,1.58,0,0,0,1.58,1.9,1.77,1.77,0,0,0,.56-.09,2.29,2.29,0,0,0,1.55-1.83c2.3-16.71,4.61-34.47,5.35-51.59,1.49-9.92,5.57-21,10.39-28.15,2.72-4.05,5.93-6.67,8.59-7,1.79-.22,3.38.58,4.71,2.37,2.86,3.84,2.52,9.44,2.15,15.37-.12,1.93-.24,3.92-.24,5.71l-4,53.9a1.58,1.58,0,0,0,1.72,1.77,1.72,1.72,0,0,0,.44-.09,2.28,2.28,0,0,0,1.56-2l3.81-50.81s0-.08,0-.13c1.49-9.94,5.57-21,10.4-28.22,2.72-4.06,5.93-6.67,8.59-7,1.79-.23,3.38.57,4.72,2.37,2.81,3.77,2.52,9.27,1.9,21.32-.22,4.27-.46,9.11-.62,14.83l-7.59,81c-.05.27-1.1,6.72,2.21,10,1.72,1.7,4.18,2.22,7.51,1.51l11.44-3.57-3.85,32.91a1.58,1.58,0,0,0,1.63,1.86,2.36,2.36,0,0,0,.52-.09,2.28,2.28,0,0,0,1.55-1.87l4-34,22.4-7L312.2,552a1.58,1.58,0,0,0,1.71,1.77,2.24,2.24,0,0,0,2-2l2.51-33.47,9.85-3.08a2.23,2.23,0,0,0,1.55-2.39A1.59,1.59,0,0,0,327.68,511.57Zm-11.19-19.16c-.12,1.93-.25,3.92-.24,5.71l-1.31,17.43-22.24,7,1.61-13.75c.27-1.8.49-3.66.72-5.56.89-7.51,1.82-15.28,6-21.52,2.72-4.05,6-6.66,8.59-7,1.8-.22,3.38.58,4.72,2.38C317.2,480.88,316.85,486.48,316.49,492.41Z"/><path class="cls-1" d="M283.32,476.39a2.08,2.08,0,0,0,.85-.51c.47-.43,5.93-5.6,12.11-11.93a5.9,5.9,0,0,0,2.55,4c3.78,2.08,9.55-1.8,18.18-12.22l5.22-6.27v0c-.68,4.66-.49,9.21,2.15,10.68a4.43,4.43,0,0,0,3.6.22c2.72-.86,6.23-3.74,10.72-8.75l.07.24c.82,2.89,2.54,3.72,3.83,3.91a5.85,5.85,0,0,0,2.61-.26c2.26-.71,4.94-2.63,8.18-5.83a4.1,4.1,0,0,0,2.72,1.4,5.88,5.88,0,0,0,2.43-.29c3-.95,6.87-4.09,11.72-9.6a5.56,5.56,0,0,0,2.45,3.7,4.91,4.91,0,0,0,4,.24c3.53-1.1,8.15-5.18,14.16-12.44l4.53-5.43-.29,4.48-.07,1.69.07.28c.85,3,2.66,3.78,4,3.93a6,6,0,0,0,2.43-.29c2.79-.87,6.24-3.6,10.53-8.28-.09,1.71-.16,3.29-.21,4.68a1.57,1.57,0,0,0,1.78,1.69,1.72,1.72,0,0,0,.38-.08,2.27,2.27,0,0,0,1.56-2c0-.19,0-.41,0-.61,3.64-13.9,9.67-29.48,13.11-30.55,1.7-.53,2.2-.09,2.36.06,1.77,1.6.46,8.49-.41,13.05-.76,4.05-1.18,6.41-.79,7.93.65,2.54,2.2,3.34,3.38,3.57,2.8.53,6.77-1.56,12.06-6.35h0a4.06,4.06,0,0,0,1.24,1.2c3.53,2.22,8.54-1.79,11.54-4.66a4,4,0,0,0,2.78,1.39,6.13,6.13,0,0,0,2.33-.29c3.52-1.1,8.1-5.15,14.12-12.42a1.76,1.76,0,1,0-2.68-2.22c-8.77,10.59-12.12,11.2-12.92,11.13-.22,0-.83-.07-1.28-1.42v0l1.57-16.79c1.48-7.17-1.78-8.41-2.82-8.62-3.84-.77-8.9,4.21-12.61,12.44-1.26,2.84-3.43,11.13-2.57,16.73h0c-5.16,4.84-8.33,6.39-9.58,6.15-.18,0-.65-.12-1-1.27-.2-.8.38-3.84.84-6.28,1.2-6.3,2.56-13.45-.56-16.26-1.34-1.2-3.24-1.43-5.64-.68-4.42,1.38-8.65,10.6-11.75,19.37q.36-6.09.86-13.63a1.58,1.58,0,0,0-1.74-1.75,2.23,2.23,0,0,0-2,2.05q-.72,11-1.16,18.87c-8.35,9.93-11.56,10.48-12.34,10.39-.2,0-.81-.08-1.25-1.42l1.45-22.83a1.58,1.58,0,0,0-1.74-1.75,2.27,2.27,0,0,0-2,2.06l-.74,11.46-7.6,9.12c-10.15,12.27-13.05,11.16-13.35,11-2.56-1.43-.86-12.72,1.08-17,3.3-7.35,6.9-10.08,8-9.85.43.09,1.09,1.36.36,4.8l-.89,5.33a1.59,1.59,0,0,0,1.52,1.95,2.22,2.22,0,0,0,2.15-1.86l.88-5.23c1.53-7.26-1.75-8.52-2.79-8.74-3.85-.79-8.92,4.22-12.61,12.45a41,41,0,0,0-2.75,13.07c-8.69,10.45-12,11-12.8,10.92-.21,0-.81-.08-1.25-1.41L357.23,423a1.58,1.58,0,0,0-1.74-1.75,2.27,2.27,0,0,0-2,2.06l-1.41,21.84,0,.89c-5.57,5.78-7.84,6-8.41,5.92s-.91-.54-1.2-1.41l3.25-51.83A1.57,1.57,0,0,0,344,397a2.24,2.24,0,0,0-2,2l-1.64,26.09a2.72,2.72,0,0,0-.51-.13c-4-.74-10.21,3.49-14.49,13a39.25,39.25,0,0,0-1.39,3.92h0l-9.63,11.6c-10.15,12.26-13.06,11.14-13.35,11-.85-.48-1.23-2-1.29-4.09,5.95-6.23,11.85-13,14.2-17.2s1.59-6.48,1-7.47a3.92,3.92,0,0,0-4.3-1.5c-3.25.59-8.28,4.15-11.84,12.07a41,41,0,0,0-2.76,13c-7.08,7.36-13.93,13.84-14.05,13.95a2,2,0,0,0-.31,2.7A1.64,1.64,0,0,0,283.32,476.39ZM450,401.28c2.9-6.45,6-9.36,7.51-9.82a1.21,1.21,0,0,1,.52,0c.44.09,1.09,1.35.38,4.71l-1.6,16.31-.05,1c-4.42,4.4-7,5.4-7.89,4.85a2.34,2.34,0,0,1-.88-1.35c0-.05,0-.11,0-.17a1.62,1.62,0,0,0-.09-.38c0-.05,0-.09,0-.14C447.05,412.41,448.43,404.73,450,401.28Zm-121.3,37.88c3.33-7.4,7.93-10.81,10-10.43,1.28.24,1.36,2.38,1,4.3a1.8,1.8,0,0,0,.11,1L339,445.88c-10,12-12.41,10.87-12.51,10.81C324.42,455.53,326.41,444.24,328.69,439.16ZM302,447.47c2.49-5.51,5.89-8.64,8.19-9.36l.44-.1c.17,0,.78-.12,1,.15s.23,1.41-1,3.58c-1.76,3.21-5.92,8.14-10.57,13.17A31.85,31.85,0,0,1,302,447.47Z"/><path class="cls-1" d="M345.85,536.08c-6.06,6.48-8.47,6.7-9.07,6.62s-.91-.55-1.2-1.41l3.25-51.83a1.58,1.58,0,0,0-1.74-1.74,2.21,2.21,0,0,0-2,2L331.9,540.6l-.08,1.69.08.28c.82,2.89,2.54,3.72,3.84,3.91a6,6,0,0,0,2.61-.26c2.68-.84,5.93-3.36,10-7.72a1.93,1.93,0,0,0,.12-2.69A1.87,1.87,0,0,0,345.85,536.08Z"/><path class="cls-1" d="M593.34,455.72a1.91,1.91,0,0,0-2.64.46c-8.75,10.59-12.1,11.18-12.92,11.13-.2,0-.8-.08-1.26-1.43,0,0,0,0,0-.05l1.59-16.78c1.46-7.16-1.78-8.41-2.82-8.62-3.66-.75-8.44,3.77-12.08,11.33,0,0,0,0,0,0a44.46,44.46,0,0,1-8.6,4.31c1-2.1,2-5.26.73-7-.6-.82-1.89-1.64-4.62-.79-4.78,1.49-8,6.79-7.43,10.18a3.72,3.72,0,0,0,2.51,3.05,5.84,5.84,0,0,0,1.31.29l-9.79,15.63a18.92,18.92,0,0,1-1.82,2.59,29.31,29.31,0,0,1,0-7.6l1.7-17.94a1.6,1.6,0,0,0-1.69-1.8,2.25,2.25,0,0,0-2,2l-1.69,17.9c0,.28-.06.56-.07.83-8.72,10.48-12,11-12.82,10.94-.2,0-.81-.09-1.24-1.43l.45-7.19.14-2.11.85-13.53a1.57,1.57,0,0,0-1.74-1.75,2.27,2.27,0,0,0-2,2.05l-.92,14.28-10.25,12c-6.06,6.48-8.47,6.7-9.06,6.62s-.92-.56-1.2-1.42l1.79-28.75,14-4.37a2.22,2.22,0,0,0,1.54-2.39,1.59,1.59,0,0,0-2.13-1.25L496,459.17h0l.68-10.91a1.58,1.58,0,0,0-1.74-1.75,2.23,2.23,0,0,0-2,2.05l-.75,11.8h0L483.64,463a2.23,2.23,0,0,0-1.54,2.4,1.58,1.58,0,0,0,2.13,1.24l7.7-2.4-1.36,21.55a2.78,2.78,0,0,0-.43.41c-8.78,10.59-12.12,11.2-12.93,11.12-.21,0-.82-.06-1.27-1.41v0l1.57-16.79c1.49-7.16-1.77-8.41-2.81-8.62-3.84-.77-8.91,4.21-12.61,12.46-1.26,2.82-3.43,11.1-2.58,16.71h0c-5.16,4.84-8.33,6.39-9.59,6.15-.18,0-.65-.12-.94-1.27-.21-.8.37-3.83.84-6.28,1.2-6.3,2.55-13.45-.57-16.26-1.33-1.2-3.23-1.43-5.64-.68-4.42,1.38-8.65,10.6-11.74,19.37.1-1.66.2-3.4.32-5.23h0s0-.08,0-.14v-.05c.16-2.58.33-5.31.52-8.21A1.58,1.58,0,0,0,431,485.3a2.24,2.24,0,0,0-2,2.05c-.18,2.83-.35,5.48-.51,8v0l-3.05,8.93c-3.05,8.92-6.1,11.69-6.81,11.62-.17,0-1.25-1.14-.79-5.58a26.14,26.14,0,0,1,2.13-7.91c.72-1.75,1.33-3.26.45-4.51-1.05-1.45-3.21-1.18-8-.45l-1.07.17c-.76.12-1.51.24-2.27.34s-1.63.18-2.43.24a54.23,54.23,0,0,0,0-9.62c-.29-2.49-1.87-2.78-2.53-2.78-1.41,0-2.78,1-3.91,2a10.2,10.2,0,0,0-3.54,6.64,6.54,6.54,0,0,0,2.12,5.63,8,8,0,0,0,3.9,1.78v0a1.87,1.87,0,0,0-.53.45l-12.49,15c-10.14,12.26-13.05,11.16-13.35,11-.78-.42-1.16-1.8-1.26-3.62,5.11-5.38,11.29-12.43,14.17-17.67,2.31-4.2,1.59-6.48,1-7.45a3.9,3.9,0,0,0-4.31-1.5c-3.22.6-8.26,4.12-11.84,12.07a41.2,41.2,0,0,0-2.75,13.45c-3.66,3.8-6.5,6.52-6.62,6.64-6.06,6.48-8.48,6.7-9.07,6.62s-.9-.56-1.2-1.43l1.81-28.74,14-4.38a2.23,2.23,0,0,0,1.55-2.39,1.59,1.59,0,0,0-2.14-1.24l-13.17,4.11h0l.7-10.92a1.58,1.58,0,0,0-1.74-1.75,2.25,2.25,0,0,0-2,2.05l-.74,11.8h0l-8.55,2.67a2.25,2.25,0,0,0-1.54,2.39,1.59,1.59,0,0,0,2.14,1.24l7.69-2.4-1.68,26.88-.07,1.7.06.27c.82,2.89,2.54,3.73,3.85,3.92a6,6,0,0,0,2.61-.26c2.67-.84,5.91-3.34,9.91-7.63.22-.22,2.08-2,4.65-4.61a5.54,5.54,0,0,0,2.44,3.6c3.79,2.09,9.56-1.78,18.19-12.2l9.83-11.82v0c-.3,5-.66,10.86-.91,16.55A1.57,1.57,0,0,0,403,526a2,2,0,0,0,.37-.08,2.24,2.24,0,0,0,1.57-2c.26-5.67.59-11.23.91-16.48.1-1.67.25-3.33.4-5,0-.14,0-.25,0-.39.9,0,1.79-.14,2.66-.24s1.59-.23,2.38-.36l1.06-.18c1.05-.16,3.21-.48,4.42-.54-.1.24-.2.48-.29.72a30.25,30.25,0,0,0-2.43,9.09c-.8,8,2.3,9.11,3.65,9.22,3.36.29,6.9-3.81,10-11.38-.17,3.14-.3,5.88-.39,8.16a1.58,1.58,0,0,0,1.79,1.7,1.63,1.63,0,0,0,.37-.08,2.26,2.26,0,0,0,1.56-2c0-.19,0-.41,0-.61,3.65-13.91,9.67-29.48,13.11-30.55,1.71-.53,2.2-.09,2.37.06,1.77,1.6.46,8.49-.41,13.06-.77,4-1.19,6.4-.8,7.92.66,2.54,2.2,3.34,3.38,3.57,2.81.53,6.78-1.56,12.06-6.35h0a4.14,4.14,0,0,0,1.24,1.19c3.54,2.23,8.55-1.79,11.55-4.63a4.1,4.1,0,0,0,2.78,1.38,6.21,6.21,0,0,0,2.31-.3c3-.94,6.77-4,11.56-9.4l-.07,1.38.08.26c.82,2.9,2.55,3.73,3.83,3.92a5.85,5.85,0,0,0,2.61-.26c2.69-.84,5.95-3.38,10.08-7.81l7.3-8.51-.12,1.78-.07,1.68.08.28c.84,3,2.65,3.8,4,3.93a5.85,5.85,0,0,0,2.43-.28c2.9-.91,6.53-3.8,11.08-8.87.19,3.17,1.06,4.94,2.59,5.29a2.78,2.78,0,0,0,1.46-.08c1.85-.58,3.5-2.94,4.8-5.07L551.7,461a62,62,0,0,0,9.6-4c-1.52,5.83-2.66,14.88,1.33,17.36,3.53,2.22,8.54-1.79,11.52-4.63a4.09,4.09,0,0,0,2.8,1.38,6,6,0,0,0,2.31-.3c3.53-1.1,8.1-5.13,14.14-12.43A1.87,1.87,0,0,0,593.34,455.72Zm-216,55.55c2.49-5.53,5.88-8.64,8.19-9.36.14,0,.29-.09.44-.12s.77-.12.95.15.24,1.43-.94,3.58c-2.17,3.92-6.47,9.09-10.67,13.69A32.85,32.85,0,0,1,377.36,511.27ZM403,497.89a4.61,4.61,0,0,1-1.57-.86,3.19,3.19,0,0,1-1.07-2.8,5.68,5.68,0,0,1,2-3.67c.25-.23.46-.39.63-.52A49,49,0,0,1,403,497.89Zm70.89-18.95-1.59,16.3-.05,1c-4.43,4.41-7,5.43-7.9,4.86a2.38,2.38,0,0,1-.87-1.35c0-.05,0-.12-.05-.17a1.24,1.24,0,0,0-.09-.38.7.7,0,0,1,0-.14c-.76-3.82.61-11.51,2.18-15,2.89-6.45,6-9.34,7.51-9.8a1.24,1.24,0,0,1,.51-.07C473.9,474.32,474.55,475.58,473.84,478.94Zm76.74-22.79-1,1.64a4,4,0,0,1-2.16.08.62.62,0,0,1-.48-.57c-.24-1.48,1.66-4.55,4.35-5.39a3.73,3.73,0,0,1,.91-.19A12,12,0,0,1,550.58,456.15Zm23.85-7.25-1.6,16.28-.05,1c-4.44,4.43-7,5.43-7.89,4.86-2.54-1.58-.83-12.66,1.11-17,2.91-6.45,6-9.34,7.53-9.8a1,1,0,0,1,.52-.05C574.46,444.26,575.14,445.52,574.43,448.9Z"/><path class="cls-1" d="M355.09,412a4.13,4.13,0,0,0-2.84,4.41,2.92,2.92,0,0,0,3.93,2.28,4.11,4.11,0,0,0,2.84-4.4A2.93,2.93,0,0,0,355.09,412Z"/><path class="cls-1" d="M398.15,398.53a4.13,4.13,0,0,0-2.84,4.41,2.92,2.92,0,0,0,3.93,2.28,4.11,4.11,0,0,0,2.84-4.4A2.93,2.93,0,0,0,398.15,398.53Z"/><path class="cls-1" d="M518.29,456.37a4.13,4.13,0,0,0,2.84-4.41,2.93,2.93,0,0,0-3.93-2.29,4.13,4.13,0,0,0-2.84,4.41A2.93,2.93,0,0,0,518.29,456.37Z"/><path class="cls-1" d="M316.1,140.9a11.8,11.8,0,0,0,3.44.71c3.77.2,7-1.47,8.07-3.17a17.81,17.81,0,0,0,1.39-2.68,138.88,138.88,0,0,1,23.18,10.94l-.5,0c-3.73-.06-7.72,1.39-8.06,2.93a1.17,1.17,0,0,0,.82,1.34,5.45,5.45,0,0,0,1.73.29,78.82,78.82,0,0,0,10.95-.79l.71-.09a64.88,64.88,0,0,1,13,11.47c9.46,11.36,14.55,33.08,16.82,45.57a41,41,0,0,0-8-12.27l-.4-.44c-.08-.08-.14-.17-.23-.25a63.87,63.87,0,0,0-8-7.2l0-.2c-.4-1.68-4-16.46-6.37-18.89a1.49,1.49,0,0,0-2-.41c-1.76,1.15-1.94,7.46.37,13.17a11,11,0,0,0,.91,1.82,66.39,66.39,0,0,0-6.61-3.08c-.07,0-10.62-5.29-15.61-10.75.92-1.89,1.73-4.65.36-7.13-1.63-3-2.45-4.23-4.07-5.08h0c-1.9-1-5.31-.59-7.75.93a6.46,6.46,0,0,0-3.32,5.76c0,.66,0,1.26,0,1.82.05,3.75.07,5.64,3.76,7.28a9.93,9.93,0,0,0,3.43.83c2.86.15,5.32-1,6.27-2.26.14-.19.4-.56.69-1.05,5.22,5.5,15.28,10.52,15.72,10.73a64.26,64.26,0,0,1,9.25,4.59,11.32,11.32,0,0,0,3.09,2c1.4,1,2.65,2,3.76,2.89a15.27,15.27,0,0,0-2.11-.66c-6-1.38-12.2-.22-13.07,1.7-.14.31-.36,1.13.72,1.91,2.71,1.94,18.5,3.21,21,3.4a39.21,39.21,0,0,1,10.13,28.53c-.21,2.75-1.13,13.74-1.74,16.58l1.2.07c.61-2.84,1.52-13.81,1.73-16.56a37.25,37.25,0,0,0-.4-8.42s0,0,0,0c0-.34-3.58-30.07-13.86-48.66a.69.69,0,0,0,0-.25c0-.13-2.7-12.66-3.85-19.13,0-.1,0-.22,0-.32l.26-.27c.8-.83,7.77-8.16,8.28-10.42a1.18,1.18,0,0,0-.61-1.48c-1.5-.66-5.19,1.8-7.44,5a8.94,8.94,0,0,0-.74,1.28,119.88,119.88,0,0,1,1.32-13.3c1.92-.1,4.8-.69,6.19-3.15a15.84,15.84,0,0,0,1.83-4,45.72,45.72,0,0,0,7.61,15.91c-2.11,5.67-3.86,12.73-3.26,24.16l.37,7c.61,11.87.77,15.06,2,23.31.88,5.73,1.62,11.7,2.39,18,.51,4.07,1,8.18,1.57,12.32-1.23,3.91-2.58,15.67-3.25,19l1.2.07c.51-2.55,1.6-13.38,2.44-16.27.39,2.77.81,5.56,1.27,8.35l.89-2c-.62-3.72-.83-5.38-1.33-9.08.77-2.41,1.67-4.92,2.71-7.5a158.41,158.41,0,0,1,20.57-2.41c11.56-.57,17.41-15.7,17.65-16.34l.57-1.51-1.41.78c-.13.07-12.82,7-20.1,7.71a25.36,25.36,0,0,0-15.17,6.91A115.23,115.23,0,0,1,409.1,192l1.24-1c.09-.07,8.85-6.84,23.67-4.9,6.4.84,13.72-1.57,21.18-7a60.81,60.81,0,0,0,9.4-8.45l1.26-1.47-1.87.5c-.15,0-15.16,4.09-21.73,3.45a33.36,33.36,0,0,0-22.33,5.55q4.54-4.91,10-9.77l6.66-5.5h0a1.17,1.17,0,0,0,.5-.1c1.57-.55,6.79-.31,11.85-.08,3.58.17,7.29.34,10.41.29,8.05-.12,16.74-12.64,17.1-13.18l1.27-1.85-2,1c-4.16,2-16.26,3.27-16.38,3.29-3.25,0-9.08,2.24-14.1,4.57a111.9,111.9,0,0,1,12.13-5.93c1.94-.76,3.92-1.37,5.83-2,6.14-1.92,12.49-3.9,18.31-10.83,5.38-6.41,19.62-10,24.3-11.17,2.11-.53,2.15-.54,2.18-1l0-.44-.43-.16c-11.42-4.35-24.61-2.36-40.33,6.06-11.16,6-20,16.13-24.89,22.48.6-1.81,1.12-3.69,1.61-5.48a42.85,42.85,0,0,1,2.15-6.61c3.24-6.71,11.68-13.27,11.77-13.34l1.79-1.38-2.24.32c-17,2.45-23.42,18.1-25.52,23.25a185.1,185.1,0,0,0-6.24,19.91l-.06.2a130.76,130.76,0,0,0-21.81,26.53c0-.17,0-.4-.09-.76-.32-2.71-1.31-11,2.66-16.75.54-.79,1-1.48,1.47-2.11,2.5-3.54,3.44-4.87,4.45-10.15,1.18-6.13.74-8.14.72-8.22l-.27-1.12-.76.86c-.51.57-12.42,14.12-13.79,20.67s4.25,17.64,4.49,18.11l.36.7a112.09,112.09,0,0,0-9.86,21.09c-.43-3.31-.84-6.61-1.24-9.88-.78-6.33-1.52-12.32-2.41-18.06-1.26-8.19-1.43-11.37-2-23.19l-.36-7c-.77-14.51,2.34-21.86,5.07-28.35.61-1.42,1.18-2.77,1.7-4.17,1.19-3.19,2.8-7.22,4.6-11.48,1.67-.32,7.1-1.52,7.56-3.52a1.62,1.62,0,0,0-.82-1.71,2.89,2.89,0,0,0-2.44-.55,5.54,5.54,0,0,0-2.51,1.57c1.25-2.91,2.55-5.84,3.82-8.62l.73-.08c.8-.09,7.79-.94,8.85-3.5a2.12,2.12,0,0,0-.47-2.24,2.7,2.7,0,0,0-2.32-1.11c-2.16.14-4.44,2.83-5.69,4.56,1.93-4.16,3.75-7.84,5.17-10.4a23.88,23.88,0,0,0,1.75-4h0c.12-.36.27-.73.38-1.09,1.55-.07,6.11-.43,7.52-2.36a2.25,2.25,0,0,0,.32-2.06,1.76,1.76,0,0,0-1.31-1.34c-1.63-.38-4.2,1.66-5.89,3.23a32.3,32.3,0,0,0,.55-9.55,3.91,3.91,0,0,0,2.54-4.47L416,69.49a3.94,3.94,0,0,0-4.63-3,3.92,3.92,0,0,0-3,4.62l.26,1.27a3.88,3.88,0,0,0,1.69,2.47,3.79,3.79,0,0,0,1.93.64c.11,0,.22,0,.33,0a32.25,32.25,0,0,1-1,10.93c-.63-1.92-2.49-6.88-5.19-8a3,3,0,0,0-2.73.25,2.15,2.15,0,0,0-1.23,2c.13,3,7.69,6.77,8.56,7.18l.13.07a23.63,23.63,0,0,1-1.74,4c-1.39,2.49-3.15,6-5,10.06-.08-2.08-.46-7.29-2.36-8.28a1.75,1.75,0,0,0-1.88.22A2.46,2.46,0,0,0,399,95.76c-.22,2.86,3.9,6.8,4.37,7.24l.34.31c-2,4.33-4.09,9.09-6,13.62-.43-1.44-2.21-7-4.87-7.92a2.47,2.47,0,0,0-2.33.35,2.14,2.14,0,0,0-1,1.93c.21,2.87,6.73,6.25,7.48,6.62l.28.15c-1.71,4.09-3.26,8-4.41,11-.51,1.37-1.08,2.71-1.67,4.12q-.7,1.65-1.41,3.42c-2.22-3-10.36-15.31-7.94-31.79,0-.18.05-.38.07-.56l.57-.45c1.19-.94,11.63-9.34,11.3-13.31a2,2,0,0,0-1.11-1.66,2.47,2.47,0,0,0-2.19-.12c-3.27,1.23-6.66,8.72-8.15,12.4.57-4.7,1-9.73,1.29-14.64l.39-.17c.74-.32,7.22-3.22,7.89-6.49a2.78,2.78,0,0,0-.79-2.53,2.31,2.31,0,0,0-2.28-.82c-2.27.54-4.15,4.92-5.06,7.44.25-4.77.41-9.33.5-13.28l.54-.46c.66-.57,6.5-5.67,6.23-8.53a1.85,1.85,0,0,0-1-1.49,1.92,1.92,0,0,0-1.8-.09c-1.89.85-3.23,4.89-3.92,7.45.08-4.55.07-7.89.06-9.14a3.91,3.91,0,0,0,3.31-3.65l.06-1a3.92,3.92,0,0,0-7.82-.43l0,1.06a3.9,3.9,0,0,0,3.31,4.06c0,1.54,0,6.51-.14,13.06-1-2.35-3.8-8.54-7.15-10a3.35,3.35,0,0,0-2.77,0,1.93,1.93,0,0,0-1.33,1.67c-.21,3.26,8.91,8.87,10.75,10l.45.27c-.13,4.32-.33,9.19-.65,14.16-.73-1-4-5.51-7.09-6a3,3,0,0,0-2.5.72,1.8,1.8,0,0,0-.76,1.86c.65,2.53,8.35,4.2,9.89,4.51l.38.07c-.33,4.81-.77,9.67-1.37,14.15-.58-.88-5.71-8.4-10.67-6.52-1.13.42-1.35,1-1.33,1.49.07,2.27,8,5,11.38,6l.46.14-.09.68a42.78,42.78,0,0,0,.13,13.27,9.21,9.21,0,0,0-3.37-3,5.83,5.83,0,0,0-6,.19l-1.36.88c-2.86,1.81-4.3,2.72-3.8,6.33.57,4.12,3.67,6.56,5.69,6.74l.32,0h.17c-.44,2.79-2,13.87-1,19.72.81,4.54,2.35,12,3.22,16.18a39.12,39.12,0,0,0-2.91-4c-4.65-5.59-10.93-10.4-17.25-14.32l-.15-.62c-.39-1.68-4-16.46-6.36-18.89a1.5,1.5,0,0,0-2-.41c-1.76,1.16-1.94,7.46.36,13.17a12,12,0,0,0,1.8,3.07,141.84,141.84,0,0,0-18.72-8.4,8.69,8.69,0,0,0-.53-7.47c-2.2-3.43-3.29-4.91-5.29-5.8h0c-2.35-1.05-6.4-.28-9.22,1.74a7.74,7.74,0,0,0-3.52,7.14c.08.8.13,1.53.19,2.21C311.39,137.11,311.56,139.23,316.1,140.9Zm23.28,29.41c-1.1,1.47-4.77,2.59-8.25,1.05-3-1.33-3-2.46-3.06-6.21q0-.84,0-1.83a5.3,5.3,0,0,1,2.76-4.72c2.33-1.45,5.23-1.59,6.57-.89s1.93,1.63,3.57,4.6C342.76,165.61,339.73,169.84,339.38,170.31Zm27.36,14a10.8,10.8,0,0,1-2.7-3.91c-2.22-5.51-1.85-11.06-.81-11.74l.08,0a.89.89,0,0,1,.41.27c1.7,1.72,4.52,12.1,5.78,17.2Q368.21,185.25,366.74,184.35Zm-7.66,7.83c-.15-.11-.39-.31-.32-.45.39-.87,3.69-1.8,7.83-1.58a22.92,22.92,0,0,1,3.88.55,16.5,16.5,0,0,1,7.71,4.56C372.41,194.78,361,193.57,359.08,192.18ZM374,141.86c2.29-3.25,5.3-4.78,5.93-4.61,0,0,0,.08,0,.15-.3,1.33-4.27,5.91-7.17,9A6.72,6.72,0,0,1,374,141.86Zm92.31,13.46c-.1,0-9.59,2.08-12.71,1.94a38.16,38.16,0,0,0-7.94,1.3c4.77-2.27,10.39-4.52,13.76-4.55.49,0,9.67-1,14.88-2.65-2.64,3.4-9.14,11-14.94,11-3.08,0-6.77-.12-10.34-.29-3.87-.18-7.38-.34-9.77-.22.43-.24.92-.52,1.45-.8,1.3-.37,10-2.77,12.84-2.64,3.29.15,12.63-1.88,13-2a.6.6,0,0,0-.25-1.17ZM467.84,133c14.6-7.82,26.92-10,37.6-6.61-5.35,1.35-19.23,4.86-24.83,11.53s-11.49,8.51-17.74,10.46c-1.29.4-2.62.84-3.94,1.3,6.43-3.7,12.34-7.53,14-10.44,3.41-6,19.71-11,19.87-11.06a.59.59,0,0,0-.34-1.14c-.69.21-16.93,5.22-20.57,11.61-2.2,3.86-13.48,10-21.72,14.53-3.56,2-6.63,3.63-8.23,4.72h0l-.17.13-.93.54C444.44,153.36,454.51,140.13,467.84,133Zm-34.79,18.64c1.94-4.76,7.66-18.76,22.35-22.11-2.74,2.36-7.87,7.21-10.32,12.29a43.89,43.89,0,0,0-2.23,6.81c-1,3.57-2.05,7.48-3.72,10.32l-.53.81a9.73,9.73,0,0,1-1.5,1.77h0c-1,.76-1.95,1.53-2.89,2.3a69.83,69.83,0,0,0,5.25-14c1.68-7.42,9.05-14,9.12-14.09a.6.6,0,0,0-.79-.89c-.31.28-7.73,6.93-9.49,14.71-1.59,7-5.83,15.07-6.41,16.14-.92.78-1.83,1.56-2.72,2.35l-1.83,1.52A171.09,171.09,0,0,1,433.05,151.62Zm-16.14,30.74.18-.13c3.91-3,12-9.13,25-7.86,5.38.54,15.81-1.87,20.18-3-4,4.08-16,15.13-28.15,13.54-1.14-.15-2.24-.25-3.3-.31a35.13,35.13,0,0,0-19,4C413.38,186.5,415.79,183.65,416.91,182.36Zm-14.63,11.72c-1.25-4.16-3.44-14.05,2.53-18.42,4.2-3.09,5.59-9.27,5.65-9.54a.6.6,0,0,0-1.17-.25c0,.06-1.35,6-5.19,8.82s-4.65,7.37-4.45,11.62a15,15,0,0,1-.25-5.83c1.08-5.2,9.64-15.6,12.55-19a37.81,37.81,0,0,1-.79,6.35c-1,5-1.79,6.21-4.25,9.7-.44.62-.94,1.32-1.48,2.12C402.26,184.24,402.05,190.19,402.28,194.08Zm11.41,10.64c6.08-.62,15.4-5.17,19-7.05-1.8,3.84-7.23,13.61-15.92,14a165.37,165.37,0,0,0-18.38,2c3.24-2.3,10.29-6.44,18.16-5.51,4.58.54,9-2.93,10.94-5.07.72-.8.81-1.12.74-1.42a.58.58,0,0,0-.71-.44.57.57,0,0,0-.45.48c-.46.82-5.42,5.87-10.38,5.27-7.91-.94-14.84,2.83-18.42,5.29C401.45,208.4,407.4,205.36,413.69,204.72ZM411,99.46h.18a1.53,1.53,0,0,1,1.13.66c.43.54.38.86.3,1-.51,1.23-3.9,2.15-6.58,2.58C407.28,102,409.38,99.56,411,99.46Zm7.66-16.78.14,0c.09,0,.3.07.44.52a1.08,1.08,0,0,1-.14,1c-.82,1.12-3.55,1.62-5.52,1.8C415.37,84.34,417.6,82.62,418.68,82.68ZM411,73.82a2.71,2.71,0,0,1-1.17-1.73l-.26-1.26a2.75,2.75,0,0,1,2.81-3.27,2.75,2.75,0,0,1,1.35.45,2.67,2.67,0,0,1,1.17,1.72l.26,1.26a2.7,2.7,0,0,1-.39,2.05A2.73,2.73,0,0,1,413,74.21,2.7,2.7,0,0,1,411,73.82Zm-7.34,6.77c0-.22,0-.54.65-.9a1.88,1.88,0,0,1,1.11-.31,2,2,0,0,1,.57.13c1.86.75,3.47,4.28,4.29,6.6C407.31,84.54,403.68,82.11,403.62,80.59Zm-3.44,15.26a1.33,1.33,0,0,1,.61-1,.91.91,0,0,1,.51-.19.28.28,0,0,1,.15,0c.94.49,1.49,3.63,1.67,6.35C401.78,99.58,400.07,97.34,400.18,95.85Zm2.92,17.56a2.07,2.07,0,0,1,.49,0,1.77,1.77,0,0,1,1,.38c.1.07.41.33.37.5-.16.71-2.67,1.69-5.3,2.32C400.47,115.31,401.81,113.71,403.1,113.41Zm-12.44-2.2c0-.21,0-.52.53-.87a1.36,1.36,0,0,1,.88-.29,1.17,1.17,0,0,1,.36.08c1.58.57,3,3.82,3.78,6C393.73,114.75,390.76,112.61,390.66,111.21Zm.2-21.35a1.69,1.69,0,0,1,.64-.11,1.24,1.24,0,0,1,.55.16.84.84,0,0,1,.5.72c.19,2.19-4.94,7.31-9.11,10.85C385.12,97.36,388.26,90.84,390.86,89.86Zm-1.8-12.2a1.06,1.06,0,0,1,.26,0,1.3,1.3,0,0,1,.88.5,1.55,1.55,0,0,1,.49,1.47c-.38,1.86-3.75,3.93-6,5C385.76,81.73,387.53,78,389.06,77.66Zm-.36-16.49a.76.76,0,0,1,.35-.07.7.7,0,0,1,.37.12.66.66,0,0,1,.39.57c.13,1.38-2.26,4.16-4.41,6.22C386.15,65.16,387.42,61.75,388.7,61.17ZM381,54.39l0-1a2.72,2.72,0,0,1,5.44.29l-.06,1.06a2.72,2.72,0,1,1-5.43-.3ZM373,63.19c0-.1,0-.39.62-.65a2.28,2.28,0,0,1,1-.18,2.54,2.54,0,0,1,.86.22c2.61,1.11,5,5.91,6.17,8.51C377.68,68.6,372.85,64.92,373,63.19Zm.17,20.66c0-.07-.08-.29.37-.66a1.89,1.89,0,0,1,1.36-.47l.2,0c1.86.26,4.13,2.66,5.5,4.4C377.26,86.34,373.42,85,373.13,83.85Zm-3.07,14s.14-.18.56-.34a3.56,3.56,0,0,1,1.44-.22c2.67.15,5.37,3.08,6.81,4.92C374,100.51,370,98.58,370.06,97.8ZM372,128c-1.61-.15-4.15-2.39-4.61-5.72-.39-2.86.45-3.39,3.25-5.17l1.38-.88a4.67,4.67,0,0,1,4.81-.12c2.18,1.08,3.63,3.19,3.72,4.52s-.33,2.21-1.81,4.83C377.13,128.31,372.54,128,372,128ZM355.8,149.39c-4,.49-9.71,1-10.88.44a.67.67,0,0,1-.16-.1c.17-.43,3.07-1.95,6.9-1.89A6.63,6.63,0,0,1,355.8,149.39Zm-8.36-9.86c-2.22-5.51-1.85-11.06-.82-11.73a.16.16,0,0,1,.09,0,.89.89,0,0,1,.41.27c1.7,1.73,4.54,12.17,5.79,17.24A10.65,10.65,0,0,1,347.44,139.53Zm-32.38-15.45c2.47-1.77,6.07-2.5,8-1.62h0c1.63.72,2.53,1.85,4.77,5.35,2.52,3.93-.86,9.37-1.26,10-1.25,1.92-5.69,3.61-10.1,2-3.82-1.4-3.94-2.92-4.29-7.42q-.08-1-.18-2.22A6.58,6.58,0,0,1,315.06,124.08Z"/><path class="cls-1" d="M338.41,163.84a3,3,0,0,0-2.78.3,2.38,2.38,0,0,0-1.21,2.13v.54c0,1.2,0,2,1.4,2.6a3.24,3.24,0,0,0,1.19.29,2.7,2.7,0,0,0,2.26-.85,3.14,3.14,0,0,0,.54-3.29A3.71,3.71,0,0,0,338.41,163.84Zm-.08,4.29a1.88,1.88,0,0,1-2,.19c-.68-.29-.68-.41-.69-1.52v-.57a1.19,1.19,0,0,1,.65-1.07,2.28,2.28,0,0,1,1.25-.34.89.89,0,0,1,.34.08c.28.14.44.36.93,1.24C339.13,166.77,338.66,167.69,338.33,168.13Z"/><path class="cls-1" d="M321.11,134.61c.38,1.13.64,1.88,2.13,2h.17a3,3,0,0,0,2.95-1.62,3.12,3.12,0,0,0-.51-3.28,3.59,3.59,0,0,0-1.87-1.2,3,3,0,0,0-2.55,1.14,2.37,2.37,0,0,0-.5,2.39Zm1.23-2.15a2.1,2.1,0,0,1,1.39-.74h0c.31.05.53.21,1.26.9.53.49.37,1.51.19,2a1.86,1.86,0,0,1-1.87.8c-.73-.07-.77-.18-1.12-1.23l-.18-.54A1.21,1.21,0,0,1,322.34,132.46Z"/><path class="cls-1" d="M375.92,125.27a3.69,3.69,0,0,0,.13-2.22,3,3,0,0,0-2.25-1.66,2.37,2.37,0,0,0-2.33.74l-.36.4c-.8.89-1.33,1.48-.74,2.86a3.19,3.19,0,0,0,2.54,2,1.56,1.56,0,0,0,.38,0A3.14,3.14,0,0,0,375.92,125.27Zm-4.46-.35c-.29-.68-.21-.76.53-1.59l.38-.42a1.1,1.1,0,0,1,1-.38l.25,0a2,2,0,0,1,1.34.89c.11.3.08.57-.16,1.54-.17.7-1.14,1.06-1.68,1.16A1.9,1.9,0,0,1,371.46,124.92Z"/><path class="cls-1" d="M437,181c7.13.56,16.2-4.7,16.59-4.93a.59.59,0,0,0-.6-1c-.09,0-8.93,5.15-15.62,4.78l-.28,0c-7-.54-17.3,2.81-17.73,2.95a.6.6,0,0,0-.38.75.59.59,0,0,0,.53.41.83.83,0,0,0,.22,0C419.85,183.89,430.26,180.48,437,181Z"/><path class="cls-1" d="M355.65,382.16l-5.14,1.54.41,11.43,5.14-1.54c3.71-1.11,6.17-4.12,6-7.58S359.36,381.05,355.65,382.16Zm.2,9.3-2.39.71-.25-7.09,2.39-.71c2.25-.67,3.77.24,3.85,2.43A4.69,4.69,0,0,1,355.85,391.46Z"/><polygon class="cls-1" points="373.26 386.31 373.17 383.66 378.42 382.09 378.35 380.03 373.09 381.6 373 379.12 378.96 377.34 378.88 375.22 370.32 377.78 370.73 389.21 379.5 386.59 379.43 384.47 373.26 386.31"/><polygon class="cls-1" points="401.62 377.8 401.29 368.53 398.67 369.31 399.08 380.74 407.38 378.26 407.3 376.11 401.62 377.8"/><path class="cls-1" d="M421.14,362.6l-2.59.77-4.63,12.94,2.68-.8.92-2.75,5.26-1.57,1.09,2.15,2.75-.82Zm-2.85,7.9,1.63-4.91,2,3.84Z"/><path class="cls-1" d="M531.74,509a3.52,3.52,0,0,1-2.06-.94l1.9-2.82a2.58,2.58,0,0,0,2.75.75,2.85,2.85,0,0,0,2.1-3v-6.92l-5.21,1.59v-2.7l8.61-2.64,0,9.43a7.07,7.07,0,0,1-1.35,4.44,7.68,7.68,0,0,1-4,2.56A6.52,6.52,0,0,1,531.74,509Z"/><path class="cls-1" d="M558.6,495.94v5.15l-3.43,1.05V497l-5.75-7.59,3.64-1.12,4,5.25,4-7.68,3.36-1Z"/><path class="cls-1" d="M576.63,494.84a4.74,4.74,0,0,1-2.88-1.79,5.77,5.77,0,0,1-1.06-3.56,9,9,0,0,1,1-4.19,11.29,11.29,0,0,1,2.87-3.57,11.71,11.71,0,0,1,4.12-2.23,8.44,8.44,0,0,1,3.48-.4,4.69,4.69,0,0,1,2.62,1.11l-2.2,2.67a3.76,3.76,0,0,0-3.73-.56,6.82,6.82,0,0,0-2.45,1.34,6.65,6.65,0,0,0-1.68,2.17,5.79,5.79,0,0,0-.6,2.6,3.83,3.83,0,0,0,.6,2.22,2.79,2.79,0,0,0,1.69,1.14,4.71,4.71,0,0,0,2.46-.16,7,7,0,0,0,3.72-2.87l2.2,1.32a10.82,10.82,0,0,1-2.62,2.74,11.63,11.63,0,0,1-3.49,1.73A8,8,0,0,1,576.63,494.84Z"/><path class="cls-1" d="M591.82,443.58v-7.82h3.33A5.68,5.68,0,0,1,597,436a1.8,1.8,0,0,1,.91.75,2.23,2.23,0,0,1,.34,1.23,2.13,2.13,0,0,1-.51,1.46,2.54,2.54,0,0,1-1.55.72,3.61,3.61,0,0,1,.84.66,7.91,7.91,0,0,1,.91,1.27l1,1.52H597l-1.14-1.7a14,14,0,0,0-.83-1.15,1.16,1.16,0,0,0-.48-.32,2.57,2.57,0,0,0-.8-.09h-.32v3.26Zm1.58-4.51h1.17A5.63,5.63,0,0,0,596,439a.84.84,0,0,0,.45-.33,1.08,1.08,0,0,0,.16-.59.93.93,0,0,0-.22-.63.87.87,0,0,0-.59-.31c-.13,0-.51,0-1.15,0H593.4Z"/><path class="cls-1" d="M601.83,440a6.91,6.91,0,1,1-6.91-6.91A6.91,6.91,0,0,1,601.83,440Zm-6.91,5.84a5.84,5.84,0,1,0-5.84-5.84,5.85,5.85,0,0,0,5.84,5.84Z"/><path class="cls-1" d="M320.44,183.82a143.66,143.66,0,0,0-80.91,129.79v74h5.85v-74A137.87,137.87,0,0,1,323,189.07Z"/><path class="cls-1" d="M220.94,371.27l-8.85.24s-.14-5.88-.16-6.48c-.25-10.84-21.72-10.27-21.46.58h0l.46,19.37a4.77,4.77,0,0,1,4.24-3.16l26-.63c1.64,0,3.26.92,4.61,2.93l-.39-16C224.15,370.19,222.57,371.23,220.94,371.27Zm-9.67.26-20,.49c-.09-3.86.69-5.12,9.59-5.33C210,366.47,211.18,367.66,211.27,371.53Z"/><path class="cls-1" d="M209.09,309.08c-8.53-.57-18,2.7-18.7,13.1s8.22,15,16.75,15.56,18-2.69,18.72-13.14S217.61,309.65,209.09,309.08ZM225,324.54a3.9,3.9,0,0,1-1.22,2.63,3.43,3.43,0,0,1-2.58.95l-26.62-1.79a3.68,3.68,0,0,1-3.28-4.05,3.92,3.92,0,0,1,1.22-2.62,3.38,3.38,0,0,1,2.58-1l26.62,1.79A3.67,3.67,0,0,1,225,324.54Z"/><path class="cls-1" d="M222.78,278l-11.4-3.06c1.13-4.2,2.18-5,9.14-3.14,6.5,1.75,8.7-.08,9.81-4.22l1.61-6a4.73,4.73,0,0,1-5.1,1.28l-2.5-.67c-6.17-1.65-9.87.85-11.64,5.89,1.56-10.31-14.61-15-17.9-2.67l-4.63,17.24a4.75,4.75,0,0,1,5-1.82l25.19,6.77c1.59.42,2.81,1.79,3.54,4.1l3.8-14.16C226.54,278.34,224.9,278.54,222.78,278Zm-12.32-3.31-16.26-4.37c1-3.72,2-3.69,9.19-1.75C210.24,270.37,211.47,270.91,210.46,274.65Z"/><path class="cls-1" d="M208.81,229.39c.39-.85,1.38-3,1.38-3l26.87,12.48c1.48.69,2.46,2.36,2.82,4.68L246.64,229c-2,1.22-3.91,1.55-5.4.86l-26.87-12.47s1-2.12,1.38-3c1.61-3.45,3.71-4.26,7.93-4.29l-6-1.56-12.1,26,5,3.57C208,235,207.2,232.84,208.81,229.39Z"/><path class="cls-1" d="M242.61,186.33l13.1,23c1,1.94.65,3.94-.05,6.3l5.34-5.5c-2.21.77-3.45.39-4.83-1.81l-2.06-3.66,8.8-9.06,4.33,2.45c1.79,1,1.95,2.57.95,4.67l12.17-12.53c-3.1,1.1-4.49.55-5.92-.17l-28.56-14.4-8.75,9C239.75,183.55,241.51,184.4,242.61,186.33ZM262,195.08l-8.42,8.68-10.09-17.91Z"/><path class="cls-1" d="M274.58,156,289,177.72c.91,1.36,1,3.25,0,5.46l23.34-15.53L309,161.71c1,4.72.26,6.92-2.75,8.92l-6.95,4.63-16.47-24.75a4.68,4.68,0,0,1,.19-5.23l-13.36,8.89A4.7,4.7,0,0,1,274.58,156Z"/><path class="cls-1" d="M458.47,189.74l-3,5a137.66,137.66,0,0,1,67.21,118.85V416.66L353,472.29l1.82,5.57,173.71-57V313.61A143.5,143.5,0,0,0,458.47,189.74Z"/><path class="cls-1" d="M477.22,166l-3.62,6A160.27,160.27,0,0,1,551.83,310.3V425h7V310.3A167.21,167.21,0,0,0,477.22,166Z"/><path class="cls-1" d="M401.72,353.53l45.59-34.84.39-.3,4.67-17.15L446,290a3.9,3.9,0,0,0-.53-.87l.7-10.81-.5-.47a40.19,40.19,0,0,0-6.59-5.09l-.94-7.39-.74-.34c-3.47-1.6-11.89-5.11-14.84-3.22a33.79,33.79,0,0,0-4.42,4.89l.9-14.81L397.38,221.2l-1.24,1.24c-.09.1-9.23,9.57,0,22.59l6.92,11.26L392.19,287l-11.11-17.22,8.83-15,.15-.35c.13-.51,3.27-12.41-3-17.31l-1-.8-.91.91c-2.17,2.15-21.16,21.21-21.8,28.29-.57,6.25-1.09,29.84-1.18,34.06L351.4,309.88l-41.67,20.19L308.17,386l63.61-25.05Zm41.39-74-.5,7.86a3.87,3.87,0,0,0-2.43.43,74.17,74.17,0,0,0-9.38,7.15h0c-.12.09-12.89,9.29-18.46,12.65s-8.38,1.85-9.62.77c5.57-6.22,12.62-14,18.68-20.64l.66-.6-.05-.06c6.34-6.91,11.48-12.36,12.42-13C435.29,273.69,439.2,275.94,443.11,279.49Zm-19-15.24c1-.6,6.18.8,11.31,3.08l.51,4a3.79,3.79,0,0,0-3.06.26c-1.22.78-7.06,7-13.56,14.07-2.27,2-9.24,8.1-13.77,10.58a4.79,4.79,0,0,1-3.73.64,4.13,4.13,0,0,1-2-1.4C408.48,283.75,422.23,265.54,424.08,264.25ZM406.27,256l-7.7-12.53c-5.94-8.4-3.23-14.78-1.45-17.5L416,252.7l-1.1,17.95c-6.7,8.54-15.59,20.57-18.05,23.92l-.33.44.11-1.12-2.45-3.79Zm-95,125.7,1.38-49.72,40.27-19.52,12.2-11.52v-.61c0-.28.58-27.84,1.18-34.47.4-4.34,12-17.47,19.93-25.45,3.16,3.92,1.4,11.85,1.09,13.15l-9.63,16.33,16,24.8-1.36,16.25-8.48,14.61-14.58,5.57,1.05,2.74,15.54-5.94,9.16-15.8,1.52-16.48.24.49a7.51,7.51,0,0,0,4.14,3.6,6.45,6.45,0,0,0,1.95.3,8.62,8.62,0,0,0,4.1-1.16c.3-.17.64-.39.95-.58-3.69,4.09-6.75,7.51-8.18,9.11l-.72.81.56.93a8.22,8.22,0,0,0,6.83,3.43,14.57,14.57,0,0,0,7.49-2.44c.47-.28,1-.61,1.55-1l-4.51,4.2.1.75a5.83,5.83,0,0,0,3,4.17c2.66,1.35,6.46.72,11.28-1.89l16.59-8.84-1.38-2.59-16.6,8.85c-3.79,2.05-6.82,2.72-8.53,1.88a2.73,2.73,0,0,1-1.28-1.33L430,299.53c6.33-5.65,9.86-8.13,11.71-9.23a1,1,0,0,1,.84-.08c.31.11.55.36.77.95l5.94,10.47-4.09,15-44.42,34.09-29.82,7.4Z"/></svg>